<?xml version="1.0" encoding="UTF-8"?>
<svg version="1.1" xmlns="http://www.w3.org/2000/svg" width="480" height="471">
<path d="M0 0 C158.4 0 316.8 0 480 0 C480 155.43 480 310.86 480 471 C321.6 471 163.2 471 0 471 C0 315.57 0 160.14 0 0 Z " fill="#FEFEFE" transform="translate(0,0)"/>
<path d="M0 0 C0.84224121 0.00008057 1.68448242 0.00016113 2.55224609 0.00024414 C18.83635028 0.14885028 18.83635028 0.14885028 21.875 3.1875 C22.52174846 15.6374079 21.59211546 27.04772728 18.875 39.1875 C18.39363792 41.7495885 17.91444324 44.31208524 17.4375 46.875 C16.27562443 52.80306406 14.59414081 58.34765576 12.44921875 63.9921875 C11.65265474 68.42476821 12.73196114 71.89294627 13.875 76.1875 C18.77581733 97.66126994 18.00985233 120.70470549 15.38671875 142.46484375 C14.38409096 150.99539821 14.20226208 159.60978868 13.875 168.1875 C15.133125 167.87039062 16.39125 167.55328125 17.6875 167.2265625 C20.73640746 166.45808787 23.78354052 165.76714865 26.875 165.1875 C26.6875 167.4375 26.6875 167.4375 25.875 170.1875 C24.20833333 171.52083333 22.54166667 172.85416667 20.875 174.1875 C16.17611672 180.04207988 16.17611672 180.04207988 14.875 187.1875 C16.525 187.5175 18.175 187.8475 19.875 188.1875 C19.875 189.1775 19.875 190.1675 19.875 191.1875 C16.75209365 190.70171457 13.87919641 190.1888988 10.875 189.1875 C10.875 185.2275 10.875 181.2675 10.875 177.1875 C7.575 176.5275 4.275 175.8675 0.875 175.1875 C0.875 176.8375 0.875 178.4875 0.875 180.1875 C-2.875 181.3125 -2.875 181.3125 -5.125 180.1875 C-8.90534623 183.66486026 -8.90534623 183.66486026 -11.125 188.1875 C-13.105 188.5175 -15.085 188.8475 -17.125 189.1875 C-17.125 190.1775 -17.125 191.1675 -17.125 192.1875 C-11.46513839 192.81557517 -11.46513839 192.81557517 -6.8125 190.1875 C-6.255625 189.5275 -5.69875 188.8675 -5.125 188.1875 C-4.135 188.1875 -3.145 188.1875 -2.125 188.1875 C-3.09947737 191.69561852 -4.04657031 193.12154776 -6.875 195.5 C-10.53290174 197.39929514 -12.08968637 198.01103339 -16.125 197.1875 C-18.68037704 195.40131726 -20.91631937 193.38311151 -23.125 191.1875 C-22.70450317 186.28170368 -20.64656758 184.4689607 -17.125 181.1875 C-16.361875 180.218125 -15.59875 179.24875 -14.8125 178.25 C-11.0044567 173.58635204 -5.73359213 169.439355 -0.125 167.1875 C2.453125 166.9921875 2.453125 166.9921875 5.125 167.0625 C6.01703125 167.08054688 6.9090625 167.09859375 7.828125 167.1171875 C8.50359375 167.14039063 9.1790625 167.16359375 9.875 167.1875 C9.86339844 166.15109375 9.85179687 165.1146875 9.83984375 164.046875 C9.83046163 162.67708514 9.82136188 161.30729332 9.8125 159.9375 C9.80412109 159.25558594 9.79574219 158.57367188 9.78710938 157.87109375 C9.77071608 154.49407446 9.81871232 151.41458361 10.875 148.1875 C6.58314898 150.8597846 3.32833209 153.56649654 -0.0625 157.375 C-0.91714844 158.3340625 -1.77179688 159.293125 -2.65234375 160.28125 C-5.49564754 163.62314261 -8.16672991 167.05968216 -10.75 170.60546875 C-11.20375 171.12753906 -11.6575 171.64960938 -12.125 172.1875 C-12.785 172.1875 -13.445 172.1875 -14.125 172.1875 C-14.125 172.8475 -14.125 173.5075 -14.125 174.1875 C-16.59980097 176.73767562 -19.37323786 178.94329616 -22.125 181.1875 C-22.68316406 181.65542969 -23.24132812 182.12335938 -23.81640625 182.60546875 C-25.3125 183.75 -25.3125 183.75 -28.125 185.1875 C-31 184.4375 -31 184.4375 -33.125 183.1875 C-33.125 180.1875 -33.125 180.1875 -30.8125 177.5 C-28.125 175.1875 -28.125 175.1875 -25.125 175.1875 C-25.125 174.5275 -25.125 173.8675 -25.125 173.1875 C-23.55078125 171.6015625 -23.55078125 171.6015625 -21.4375 169.8125 C-20.7053125 169.18859375 -19.973125 168.5646875 -19.21875 167.921875 C-17.64144714 166.61530323 -16.04411912 165.33285 -14.4375 164.0625 C-12.06392076 162.20435478 -12.06392076 162.20435478 -9.875 159.9375 C-6.11240534 156.17490534 -2.12872986 152.68988097 1.875 149.1875 C2.77025391 148.383125 2.77025391 148.383125 3.68359375 147.5625 C7.52840909 144.1875 7.52840909 144.1875 10.875 144.1875 C9.63305007 138.42576408 9.63305007 138.42576408 5.875 134.1875 C0.27503594 132.32084531 -5.06920231 132.37398706 -10.4375 134.9375 C-13.48663944 136.63483408 -15.74409438 138.62344779 -18.125 141.1875 C-18.785 141.1875 -19.445 141.1875 -20.125 141.1875 C-20.51365234 142.02667969 -20.51365234 142.02667969 -20.91015625 142.8828125 C-22.26588468 145.45477319 -23.85733983 147.70827887 -25.5625 150.0625 C-30.8879667 157.66872791 -32.71529306 162.96355734 -33.125 172.1875 C-33.22425781 173.45722656 -33.32351563 174.72695312 -33.42578125 176.03515625 C-33.99214036 185.65978649 -32.19600811 192.43832704 -26.125 200.1875 C-23.52988058 203.01501817 -21.98666836 204.63583309 -18.125 205.1875 C-18.125 205.8475 -18.125 206.5075 -18.125 207.1875 C-6.26481556 208.03710364 -6.26481556 208.03710364 4.140625 202.890625 C5.94876008 201.11506893 7.41728795 199.25709118 8.875 197.1875 C7.885 196.8575 6.895 196.5275 5.875 196.1875 C5.875 195.1975 5.875 194.2075 5.875 193.1875 C6.7825 193.373125 7.69 193.55875 8.625 193.75 C11.55814324 194.14484621 13.1394657 194.13441572 15.875 193.1875 C21.65045389 199.73301441 22.40737183 205.91394915 22.23828125 214.421875 C20.97263614 227.54103503 13.42233223 239.06289411 6.875 250.1875 C6.45573242 250.90244629 6.03646484 251.61739258 5.60449219 252.35400391 C-0.69850476 263.06710881 -0.69850476 263.06710881 -4.140625 268.18359375 C-6.2529304 271.38115842 -8.13048342 274.65514203 -10 278 C-12.71068616 282.81206653 -15.57018725 287.42998953 -18.69921875 291.984375 C-20.3039604 294.46403058 -21.68083659 297.01478627 -23.0625 299.625 C-28.63958813 309.93899156 -32.83029623 316.42259874 -44.125 320.1875 C-55.60641445 321.3815671 -67.43632161 318.12543414 -78.125 314.1875 C-78.69244783 318.72708262 -77.13322414 321.42940845 -74.90234375 325.22265625 C-73.9523162 327.62398218 -74.27773311 328.79490356 -75.125 331.1875 C-75.785 331.1875 -76.445 331.1875 -77.125 331.1875 C-73.11492748 339.20764503 -68.15746769 343.30244967 -60.125 347.1875 C-58.81402344 347.87779297 -58.81402344 347.87779297 -57.4765625 348.58203125 C-45.50395989 354.80847071 -32.98279683 359.01988881 -20.125 363 C-19.15780029 363.30220459 -18.19060059 363.60440918 -17.1940918 363.91577148 C-11.81619258 365.54446409 -6.72342024 366.67915288 -1.125 367.1875 C-1.125 368.1775 -1.125 369.1675 -1.125 370.1875 C-2.89404297 371.70214844 -2.89404297 371.70214844 -5.3671875 373.296875 C-6.72070312 374.18246094 -6.72070312 374.18246094 -8.1015625 375.0859375 C-9.53628906 376.00246094 -9.53628906 376.00246094 -11 376.9375 C-12.85233447 378.13943613 -14.70389926 379.34255928 -16.5546875 380.546875 C-17.48571289 381.15015625 -18.41673828 381.7534375 -19.37597656 382.375 C-21.98605116 384.09588755 -24.54860418 385.86763546 -27.1015625 387.671875 C-33.46458581 392.16386496 -40.01663839 396.35719989 -46.55859375 400.58203125 C-52.00730859 404.11455376 -57.36890335 407.73669591 -62.67333984 411.48193359 C-66.77939918 414.33842936 -70.98285463 417.04164645 -75.1875 419.75 C-76.86623154 420.83409964 -78.54461914 421.91873205 -80.22265625 423.00390625 C-81.03565186 423.52694336 -81.84864746 424.04998047 -82.6862793 424.58886719 C-84.33608957 425.67035259 -85.97023443 426.77605717 -87.58911133 427.90332031 C-88.37181396 428.44698242 -89.1545166 428.99064453 -89.9609375 429.55078125 C-90.65364746 430.04231689 -91.34635742 430.53385254 -92.06005859 431.0402832 C-95.70214818 433.06371415 -99.11765342 433.03229198 -103.125 432.1875 C-105.14414464 431.39739993 -106.95946933 430.45232919 -108.84765625 429.38671875 C-111.59515546 427.93992242 -114.40142774 426.89235754 -117.3125 425.8125 C-122.99704658 423.67258985 -128.47139634 421.23083843 -133.96484375 418.64453125 C-136.86755062 417.30620039 -139.78761537 416.07396235 -142.75 414.875 C-148.12201293 412.67638808 -153.3343449 410.20301061 -158.5625 407.6875 C-164.88979308 404.64753003 -171.21633737 401.92473798 -177.80859375 399.5 C-181.89867046 397.8813124 -185.84539204 396.02171139 -189.8125 394.125 C-195.84142179 391.24391059 -201.87085207 388.54996027 -208.125 386.1875 C-210.50004697 385.27095503 -212.87504515 384.35428365 -215.25 383.4375 C-217.20807614 382.68682878 -219.16631782 381.93658848 -221.125 381.1875 C-220.795 380.1975 -220.465 379.2075 -220.125 378.1875 C-218.33736315 377.76687956 -216.54812745 377.35252066 -214.75390625 376.9609375 C-205.19825423 374.1496164 -196.52071712 368.37539161 -188.453125 362.69140625 C-186.125 361.1875 -186.125 361.1875 -184.125 361.1875 C-183.77695313 360.33671875 -183.77695313 360.33671875 -183.421875 359.46875 C-181.80727216 356.62860525 -179.79094568 354.88381426 -177.375 352.6875 C-172.70028909 348.14114098 -169.93720577 343.67576111 -167.28125 337.75390625 C-166.125 335.1875 -166.125 335.1875 -164.125 332.1875 C-163.36174829 329.54060066 -162.67876056 326.93079189 -162.0625 324.25 C-161.79808105 323.10700439 -161.79808105 323.10700439 -161.52832031 321.94091797 C-160.13830421 315.69898366 -159.34277143 309.58453586 -159.125 303.1875 C-159.0734375 302.28902344 -159.021875 301.39054687 -158.96875 300.46484375 C-158.75170696 294.17963907 -159.78689123 288.68056408 -161.33203125 282.6015625 C-162.42433685 277.89872954 -163.01497725 273.16797272 -163.59765625 268.37890625 C-164.54018179 262.67488133 -165.72076257 259.08171657 -170.0625 255.1875 C-181.29635994 244.36638571 -189.19870045 231.65748797 -196.94067383 218.22094727 C-197.85815432 216.64566484 -198.81735782 215.0946448 -199.79296875 213.5546875 C-201.53684708 210.4555958 -202.734979 207.20967068 -203.9375 203.875 C-204.45938895 202.45303452 -204.98153202 201.03116228 -205.50390625 199.609375 C-205.76961426 198.88169922 -206.03532227 198.15402344 -206.30908203 197.40429688 C-207.11792511 195.20672203 -207.94410254 193.01655484 -208.77734375 190.828125 C-209.178927 189.77105347 -209.178927 189.77105347 -209.58862305 188.69262695 C-210.09751893 187.3545831 -210.60799449 186.01713852 -211.12036133 184.68041992 C-213.60483998 178.10970664 -215.31975781 171.59630403 -216.5625 164.6875 C-217.31832407 160.51583875 -218.07852325 156.34867531 -218.94921875 152.19921875 C-219.21347656 150.93722656 -219.47773438 149.67523438 -219.75 148.375 C-219.98976562 147.25480469 -220.22953125 146.13460937 -220.4765625 144.98046875 C-222.07210821 135.6474875 -222.31784512 126.32717034 -222.3125 116.875 C-222.3134668 115.0947644 -222.3134668 115.0947644 -222.31445312 113.27856445 C-222.27050233 105.99621722 -221.91148951 99.05322551 -220.5625 91.88671875 C-219.67642411 86.41994698 -220.06320462 82.77049538 -222.375 77.75 C-228.14224719 63.19221934 -229.47621851 47.73136444 -229.5625 32.1875 C-229.5725708 31.0008374 -229.5826416 29.8141748 -229.59301758 28.59155273 C-229.474987 16.91991926 -229.474987 16.91991926 -226.125 12.1875 C-219.52811414 8.12294009 -211.21323976 8.68961616 -203.75 8.75 C-202.51862305 8.75249756 -201.28724609 8.75499512 -200.01855469 8.75756836 C-191.79876018 8.87813249 -184.09903156 9.69297751 -176.16259766 11.85180664 C-169.36685346 13.67212369 -163.70544305 13.20257249 -157.1875 10.25 C-152.51354589 8.29132331 -148.11695215 7.03078603 -143.125 6.1875 C-141.64193359 5.9090625 -141.64193359 5.9090625 -140.12890625 5.625 C-130.44162772 4.09710503 -120.78457116 3.99915525 -111 4 C-110.32194305 3.99909363 -109.64388611 3.99818726 -108.94528198 3.99725342 C-104.33629431 3.99794915 -99.7324485 4.07207209 -95.125 4.1875 C-93.94107666 4.21021973 -92.75715332 4.23293945 -91.53735352 4.25634766 C-81.85356996 4.6627553 -73.48792658 7.32943524 -64.42504883 10.62353516 C-54.68809846 14.23590891 -54.68809846 14.23590891 -44.89868164 12.15234375 C-44.3133667 11.83394531 -43.72805176 11.51554687 -43.125 11.1875 C-42.33351563 10.78789063 -41.54203125 10.38828125 -40.7265625 9.9765625 C-40.07429687 9.59242187 -39.42203125 9.20828125 -38.75 8.8125 C-31.09807063 4.82334251 -22.47532837 3.15258339 -14.125 1.1875 C-13.29871094 0.97996094 -12.47242188 0.77242187 -11.62109375 0.55859375 C-7.75255329 -0.01654137 -3.90593563 -0.00345251 0 0 Z " fill="#030303" transform="translate(351.125,32.8125)"/>
<path d="M0 0 C-1.19025591 13.53133029 -5.2719193 24.46416609 -12.27734375 36.125 C-13.74687966 38.5775588 -15.13977548 41.04855368 -16.5 43.5625 C-18.85374274 47.83297136 -21.45674022 51.91944368 -24.09375 56.01953125 C-26.19668989 59.30752948 -28.26237127 62.61641335 -30.3125 65.9375 C-31.29669922 67.52884766 -31.29669922 67.52884766 -32.30078125 69.15234375 C-33.64426924 71.40384432 -34.87680919 73.63388737 -36 76 C-36.66 76 -37.32 76 -38 76 C-38.41185547 77.07894531 -38.41185547 77.07894531 -38.83203125 78.1796875 C-42.44975042 86.91545085 -47.56309053 95.28512615 -53 103 C-53.4125 103.59425781 -53.825 104.18851562 -54.25 104.80078125 C-56.5621868 107.36586348 -58.89262321 107.98683852 -62.21875 108.39453125 C-74.77894701 108.74486732 -86.56359189 106.19118064 -98 101 C-98 100.34 -98 99.68 -98 99 C-98.82757813 98.9278125 -99.65515625 98.855625 -100.5078125 98.78125 C-104.91047783 97.79631369 -108.07337134 95.86056859 -111.875 93.5 C-113.39492247 92.57922392 -114.91577739 91.65998551 -116.4375 90.7421875 C-117.20191406 90.2790918 -117.96632813 89.81599609 -118.75390625 89.33886719 C-122.08393258 87.35388193 -125.47906211 85.49400899 -128.875 83.625 C-142.53403953 76.01881653 -155.71733172 67.68441153 -168 58 C-168.89203125 57.32324219 -169.7840625 56.64648438 -170.703125 55.94921875 C-176.16174707 51.74084994 -180.65059272 47.32874402 -185 42 C-185.69738281 41.21238281 -186.39476562 40.42476563 -187.11328125 39.61328125 C-191.68517996 34.33072471 -195.45080011 28.8792736 -198.875 22.8125 C-199.24415527 22.15958984 -199.61331055 21.50667969 -199.99365234 20.83398438 C-203.10013987 15.155674 -206 9.58018155 -206 3 C-192.91528362 2.55914028 -180.20235506 5.63479927 -169.00390625 12.328125 C-160.21755842 17.21831599 -149.73255994 18.85089745 -140 21 C-139.37464355 21.17273438 -138.74928711 21.34546875 -138.10498047 21.5234375 C-125.96737599 24.27136187 -111.48746572 22.49010786 -100 18 C-99.34 17.34 -98.68 16.68 -98 16 C-96.43511748 15.33014021 -94.8481786 14.71099882 -93.25 14.125 C-89.08365105 12.51840789 -85.67197 10.56183954 -82 8 C-80.34561387 7.30341637 -78.67745682 6.63903117 -77 6 C-76.43796875 5.66742188 -75.8759375 5.33484375 -75.296875 4.9921875 C-69.64029551 1.70401325 -64.4800277 1.00078962 -58 2 C-54.08924075 3.98968453 -52.42310902 5.36533646 -50 9 C-50.38516831 13.7504092 -52.06485803 18.28486257 -55.68359375 21.4921875 C-60.44985876 25 -60.44985876 25 -63 25 C-63 25.66 -63 26.32 -63 27 C-57.87159369 25.29053123 -54.66408239 24.08686113 -51 20 C-50.34 20 -49.68 20 -49 20 C-47.50859979 16.37802806 -46.2125738 12.72433382 -45 9 C-44.35160156 9.15726563 -43.70320312 9.31453125 -43.03515625 9.4765625 C-28.20186108 12.03468548 -15.96768653 9.45041798 -3.5234375 0.91796875 C-2 0 -2 0 0 0 Z " fill="#FAFAFA" transform="translate(370,241)"/>
<path d="M0 0 C2.75444124 1.08508291 5.46233679 2.21114143 8.15625 3.44140625 C12.15299795 5.1559456 16.20383708 6.17233058 20.4375 7.125 C21.14970703 7.29386719 21.86191406 7.46273438 22.59570312 7.63671875 C30.13451337 9.37591748 37.5138779 10.16694441 45.25 10.125 C46.0128833 10.12886719 46.7757666 10.13273437 47.56176758 10.13671875 C51.86682509 10.12974347 56.0875109 9.93006142 60.37109375 9.4921875 C73.62592567 8.20392612 73.62592567 8.20392612 77.53515625 10.46875 C79.28786418 12.5448505 80.60929604 14.67006699 82 17 C88.54321128 23.78242546 96.4414162 28.55692638 105.08813477 32.17871094 C109.31814942 33.9958185 113.44824218 36.04227587 117.59570312 38.0390625 C122.32179753 40.2883572 127.07587124 42.22353867 132 44 C132 44.66 132 45.32 132 46 C129.953125 47.69140625 129.953125 47.69140625 127.25 49.5625 C125.92742187 50.49255859 125.92742187 50.49255859 124.578125 51.44140625 C122.28676489 52.82663759 120.61056895 53.55473941 118 54 C118 54.66 118 55.32 118 56 C116.26451831 57.44526736 114.46024037 58.8087222 112.625 60.125 C111.12839844 61.21167969 111.12839844 61.21167969 109.6015625 62.3203125 C107 64 107 64 105 64 C105 64.66 105 65.32 105 66 C103.35374321 67.03325522 101.68056837 68.02354328 100 69 C97.47899838 70.79863068 95.02515606 72.68505607 92.5625 74.5625 C86.64482803 79.04199629 80.67486948 83.42930622 74.60571289 87.70141602 C72.06449572 89.4961866 69.64739362 91.30528691 67.29296875 93.34375 C66.53628906 93.8903125 65.77960938 94.436875 65 95 C63.515 94.505 63.515 94.505 62 94 C60.81990204 91.63980407 60.70232315 89.83904283 60.46484375 87.2109375 C60.37783203 86.26992188 60.29082031 85.32890625 60.20117188 84.359375 C60.11416016 83.37453125 60.02714844 82.3896875 59.9375 81.375 C59.80118164 79.88613281 59.80118164 79.88613281 59.66210938 78.3671875 C59.43781564 75.91176132 59.21726893 73.45605611 59 71 C57.35 70.67 55.7 70.34 54 70 C54 77.92 54 85.84 54 94 C45.90045844 92.2105664 39.26290531 89.92474178 32 86 C23.32048664 81.57731803 14.56503256 77.33703301 5.74829102 73.19628906 C2.07597421 71.46933079 -1.57343445 69.71721376 -5.1875 67.87109375 C-8.4281019 66.23875788 -11.69659297 64.94949489 -15.125 63.75 C-22.57436094 60.96413114 -29.2165647 57.09853737 -36 53 C-36 51.68 -36 50.36 -36 49 C-33.8046875 47.03515625 -33.8046875 47.03515625 -30.875 45.0625 C-29.86695313 44.36253906 -28.85890625 43.66257812 -27.8203125 42.94140625 C-26.42425781 41.98041016 -26.42425781 41.98041016 -25 41 C-12.1614648 31.49507587 -2.45061164 15.79283056 0 0 Z " fill="#FCFCFC" transform="translate(195,357)"/>
<path d="M0 0 C9.19394505 6.74800873 18.8882933 20.3139719 21.1875 31.5 C17.58194158 30.16079259 14.47835176 28.47451106 11.1875 26.5 C10.445 26.20867187 9.7025 25.91734375 8.9375 25.6171875 C5.73458593 24.31600366 2.74800506 22.7324671 -0.3125 21.125 C-13.18284557 14.65952821 -28.38438337 9.86711968 -42.83203125 14.09033203 C-46.40079146 15.51076737 -49.58347537 17.4441307 -52.8125 19.5 C-53.8025 19.83 -54.7925 20.16 -55.8125 20.5 C-55.8125 21.16 -55.8125 21.82 -55.8125 22.5 C-54.93207031 22.15066406 -54.05164063 21.80132812 -53.14453125 21.44140625 C-51.98308594 20.98636719 -50.82164062 20.53132813 -49.625 20.0625 C-48.47644531 19.61003906 -47.32789063 19.15757812 -46.14453125 18.69140625 C-37.07225093 15.44750766 -25.60004959 14.67097756 -16.3515625 17.59375 C-13.36475126 19.06755712 -10.60330786 20.68375997 -7.8125 22.5 C-6.95011719 23.02980469 -6.08773437 23.55960938 -5.19921875 24.10546875 C-3.41613964 25.21758179 -1.64544766 26.34976562 0.11328125 27.5 C4.59883725 30.41817621 9.15411764 33.222946 13.70605469 36.03613281 C14.98953091 36.83410642 16.26699911 37.64185691 17.53710938 38.4609375 C19.28600707 39.59360178 19.28600707 39.59360178 21.62109375 40.765625 C24.26847435 43.69688931 23.86375218 47.2497936 23.8125 51 C23.80210693 52.21296753 23.80210693 52.21296753 23.79150391 53.45043945 C23.53151171 60.64044466 21.53726514 65.73010606 17.1875 71.5 C16.68476563 72.19738281 16.18203125 72.89476562 15.6640625 73.61328125 C12.63418564 77.48479057 9.78292688 79.5852388 5.1875 81.5 C4.28 82.015625 3.3725 82.53125 2.4375 83.0625 C-10.42922831 88.75355291 -27.44749403 88.24992019 -40.65625 83.8984375 C-46.00970526 81.52648579 -50.37353491 78.27831644 -54.8125 74.5 C-55.41835937 74.03980469 -56.02421875 73.57960938 -56.6484375 73.10546875 C-63.18665919 67.61269875 -66.22529152 57.16236746 -67.0859375 48.86328125 C-67.67357883 31.21143968 -61.09545547 18.34898251 -49.890625 5.25390625 C-35.60728628 -9.97947105 -17.43276484 -10.23632099 0 0 Z " fill="#F8F8F8" transform="translate(260.8125,170.5)"/>
<path d="M0 0 C0.33 1.32 0.66 2.64 1 4 C1.66 4 2.32 4 3 4 C3 6.31 3 8.62 3 11 C16.55242639 17.89106427 30.46137973 23.50093382 45.875 22.875 C53.47350317 22.65835841 57.78716696 24.87008208 64 29 C66.13851551 30.2831093 68.28444041 31.55394826 70.4375 32.8125 C71.40558594 33.39644531 72.37367188 33.98039062 73.37109375 34.58203125 C75.64965088 35.81103012 77.4734247 36.54007967 80 37 C80 37.66 80 38.32 80 39 C80.66 39.103125 81.32 39.20625 82 39.3125 C85.83841009 40.19213564 89.33096691 41.56969896 93 43 C93 43.99 93 44.98 93 46 C84.42857143 45 84.42857143 45 81 44 C80.43255217 48.53958262 81.99177586 51.24190845 84.22265625 55.03515625 C85.1726838 57.43648218 84.84726689 58.60740356 84 61 C83.01 61 82.02 61 81 61 C81 61.66 81 62.32 81 63 C79.3745692 62.85904936 77.74965949 62.71207913 76.125 62.5625 C75.22007812 62.48128906 74.31515625 62.40007812 73.3828125 62.31640625 C71 62 71 62 69 61 C69 61.66 69 62.32 69 63 C53.36636732 70.81681634 27.82462009 63.52393682 12.05078125 59.16015625 C8.56901467 57.83610417 6.01710618 56.16670743 3 54 C2.505 56.475 2.505 56.475 2 59 C0.68 58.67 -0.64 58.34 -2 58 C-2.20477153 52.26639705 -1.77543148 46.80393454 -1 41.125 C0.37271082 30.75899704 0.13310141 21.58840233 -1.5625 11.26171875 C-1.98679379 8.09845699 -2.22058596 5.18470982 -2 2 C-1.34 1.34 -0.68 0.68 0 0 Z " fill="#040404" transform="translate(192,303)"/>
<path d="M0 0 C0.70125 0.556875 1.4025 1.11375 2.125 1.6875 C2.723125 2.120625 3.32125 2.55375 3.9375 3 C5.81375629 5.66625894 5.65076951 7.53288293 5.125 10.6875 C3.48173687 11.72550967 1.8087523 12.71654379 0.125 13.6875 C-2.72175162 15.93381352 -5.42012366 18.35819697 -8.14648438 20.74804688 C-10.41955306 22.71272262 -12.50849648 24.50700161 -15.21484375 25.83984375 C-17.24615625 26.63243959 -17.24615625 26.63243959 -17.875 29.6875 C-19.6171875 31.40625 -19.6171875 31.40625 -21.75 33.1875 C-24.72884531 35.69015321 -24.72884531 35.69015321 -27.5078125 38.40625 C-28.875 39.6875 -28.875 39.6875 -30.875 39.6875 C-30.875 40.3475 -30.875 41.0075 -30.875 41.6875 C-31.865 41.6875 -32.855 41.6875 -33.875 41.6875 C-34.2771875 42.6465625 -34.2771875 42.6465625 -34.6875 43.625 C-35.875 45.6875 -35.875 45.6875 -38.875 46.6875 C-38.23397871 49.73677159 -38.23397871 49.73677159 -36.1875 50.625 C-32.50541553 50.7245158 -30.73105233 48.91522082 -27.875 46.6875 C-26.77745663 45.61856559 -25.69389954 44.53507733 -24.625 43.4375 C-23.7175 42.53 -22.81 41.6225 -21.875 40.6875 C-21.215 40.6875 -20.555 40.6875 -19.875 40.6875 C-19.875 40.0275 -19.875 39.3675 -19.875 38.6875 C-19.215 38.6875 -18.555 38.6875 -17.875 38.6875 C-17.64167969 38.13578125 -17.40835937 37.5840625 -17.16796875 37.015625 C-15.53480716 34.07494733 -13.48160793 31.89672749 -11.1875 29.4375 C-7.47231649 25.43818269 -3.88664105 21.38524903 -0.4453125 17.1484375 C1.125 15.6875 1.125 15.6875 5.125 14.6875 C4.795 20.9575 4.465 27.2275 4.125 33.6875 C2.64 33.749375 1.155 33.81125 -0.375 33.875 C-5.16531495 34.33639011 -8.19830753 35.66262345 -12.0859375 38.43359375 C-13.875 39.6875 -13.875 39.6875 -16.0390625 40.73046875 C-18.43390231 41.97884269 -18.74045561 43.27659318 -19.875 45.6875 C-21.875 47.9375 -21.875 47.9375 -23.875 49.6875 C-24.535 49.6875 -25.195 49.6875 -25.875 49.6875 C-27.13164978 52.59350261 -27.875 54.48354584 -27.875 57.6875 C-26.56162604 58.7135734 -25.22835895 59.71477325 -23.875 60.6875 C-23.875 61.3475 -23.875 62.0075 -23.875 62.6875 C-16.85934378 63.08246959 -16.85934378 63.08246959 -10.875 59.6875 C-9.06703897 57.12139334 -9.06703897 57.12139334 -7.875 54.6875 C-8.865 54.6875 -9.855 54.6875 -10.875 54.6875 C-11.16375 55.326875 -11.4525 55.96625 -11.75 56.625 C-12.875 58.6875 -12.875 58.6875 -14.875 59.6875 C-20.41346154 59.91826923 -20.41346154 59.91826923 -22.875 58.6875 C-22.875 57.6975 -22.875 56.7075 -22.875 55.6875 C-19.905 55.1925 -19.905 55.1925 -16.875 54.6875 C-16.813125 54.130625 -16.75125 53.57375 -16.6875 53 C-15.4923816 49.59850916 -13.67065993 47.9113204 -10.875 45.6875 C-8.0625 45.875 -8.0625 45.875 -5.875 46.6875 C-5.545 45.0375 -5.215 43.3875 -4.875 41.6875 C1.75 41.4375 1.75 41.4375 5.125 43.6875 C5.41796875 46.5078125 5.41796875 46.5078125 5.3125 49.8125 C5.27189453 51.45605469 5.27189453 51.45605469 5.23046875 53.1328125 C5.19566406 53.97585937 5.16085937 54.81890625 5.125 55.6875 C6.115 55.3575 7.105 55.0275 8.125 54.6875 C8.125 55.3475 8.125 56.0075 8.125 56.6875 C11.095 57.1825 11.095 57.1825 14.125 57.6875 C14.125 57.0275 14.125 56.3675 14.125 55.6875 C15.115 56.1825 15.115 56.1825 16.125 56.6875 C14.125 59.6875 14.125 59.6875 11.125 61.6875 C9.78237935 61.39380173 8.44803717 61.0596042 7.125 60.6875 C6.135 61.0175 5.145 61.3475 4.125 61.6875 C1.9375 60.75 1.9375 60.75 0.125 59.6875 C0.455 60.6775 0.785 61.6675 1.125 62.6875 C2.115 63.1825 2.115 63.1825 3.125 63.6875 C1.3592478 68.45503094 -2.49683968 71.22749018 -6.7265625 73.82421875 C-9.39561368 74.89669204 -11.50528207 74.91836112 -14.375 74.875 C-15.3134375 74.86855469 -16.251875 74.86210937 -17.21875 74.85546875 C-19.58120585 74.70607816 -21.61216665 74.35460889 -23.875 73.6875 C-23.875 73.0275 -23.875 72.3675 -23.875 71.6875 C-24.57625 71.666875 -25.2775 71.64625 -26 71.625 C-30.36149199 70.20277435 -32.24080927 67.32157988 -34.875 63.6875 C-35.36742187 63.05972656 -35.85984375 62.43195313 -36.3671875 61.78515625 C-41.22135556 54.64102755 -40.34004644 46.91963792 -39.875 38.6875 C-39.85308594 37.64464844 -39.83117187 36.60179687 -39.80859375 35.52734375 C-39.28632353 23.54882358 -31.43758283 13.60788912 -22.875 5.6875 C-16.22315537 -0.39823019 -8.79988371 -4.01733822 0 0 Z " fill="#F0F0F0" transform="translate(356.875,166.3125)"/>
<path d="M0 0 C2.79656139 2.35499907 3.83771178 3.51313533 5 7 C5.27288866 11.82103301 4.81418105 15.51790565 3 20 C2.505 20.495 2.505 20.495 2 21 C1.75266863 25.14276875 1.75266863 25.14276875 3 29 C3.549155 33.02713664 3.2180649 34.65927359 1 38.125 C-3.11847332 42.58277936 -8.96910178 45.41161969 -15 46 C-15.60972656 46.08636719 -16.21945312 46.17273438 -16.84765625 46.26171875 C-24.4374941 46.88157847 -30.41184554 43.42135997 -37 40 C-37 39.34 -37 38.68 -37 38 C-37.7425 37.7525 -38.485 37.505 -39.25 37.25 C-42.23023087 35.89534961 -43.89919252 34.4898459 -46 32 C-46 31.34 -46 30.68 -46 30 C-46.639375 29.731875 -47.27875 29.46375 -47.9375 29.1875 C-50 28 -50 28 -51 25 C-53.25680766 24.12554224 -55.51954443 23.60524612 -57.87109375 23.0390625 C-60 22 -60 22 -61.28515625 19.3984375 C-61.52105469 18.60695313 -61.75695312 17.81546875 -62 17 C-61.21238281 16.98582031 -60.42476563 16.97164063 -59.61328125 16.95703125 C-47.98909797 16.44804334 -36.88899935 13.33554908 -28.15234375 5.30078125 C-19.5437634 -2.61115098 -11.08928296 -5.85848911 0 0 Z " fill="#090909" transform="translate(322,280)"/>
<path d="M0 0 C9.19394505 6.74800873 18.8882933 20.3139719 21.1875 31.5 C17.58194158 30.16079259 14.47835176 28.47451106 11.1875 26.5 C10.445 26.20867187 9.7025 25.91734375 8.9375 25.6171875 C5.73458593 24.31600366 2.74800506 22.7324671 -0.3125 21.125 C-13.18284557 14.65952821 -28.38438337 9.86711968 -42.83203125 14.09033203 C-46.40079146 15.51076737 -49.58347537 17.4441307 -52.8125 19.5 C-53.8025 19.83 -54.7925 20.16 -55.8125 20.5 C-55.8125 21.16 -55.8125 21.82 -55.8125 22.5 C-54.4925 22.17 -53.1725 21.84 -51.8125 21.5 C-52.1425 22.16 -52.4725 22.82 -52.8125 23.5 C-53.8025 23.5 -54.7925 23.5 -55.8125 23.5 C-56.1425 24.16 -56.4725 24.82 -56.8125 25.5 C-56.8125 24.84 -56.8125 24.18 -56.8125 23.5 C-58.4625 24.16 -60.1125 24.82 -61.8125 25.5 C-60.24753484 14.62349214 -51.18188959 5.39012637 -42.77734375 -1.0625 C-28.72989824 -10.44608189 -14.13130258 -8.29773995 0 0 Z " fill="#F7F7F7" transform="translate(260.8125,170.5)"/>
<path d="M0 0 C0.495 0.99 0.495 0.99 1 2 C1.99 1.67 2.98 1.34 4 1 C3.67 9.91 3.34 18.82 3 28 C5.64 27.34 8.28 26.68 11 26 C12.66394675 25.65334443 14.32943851 25.31323028 16 25 C15.8125 27.25 15.8125 27.25 15 30 C13.33333333 31.33333333 11.66666667 32.66666667 10 34 C5.30111672 39.85457988 5.30111672 39.85457988 4 47 C5.65 47.33 7.3 47.66 9 48 C9 48.99 9 49.98 9 51 C5.87709365 50.51421457 3.00419641 50.0013988 0 49 C0 45.04 0 41.08 0 37 C-3.3 36.34 -6.6 35.68 -10 35 C-10 36.65 -10 38.3 -10 40 C-13.75 41.125 -13.75 41.125 -16 40 C-19.78034623 43.47736026 -19.78034623 43.47736026 -22 48 C-24.97 48.495 -24.97 48.495 -28 49 C-28 49.99 -28 50.98 -28 52 C-22.34013839 52.62807517 -22.34013839 52.62807517 -17.6875 50 C-17.130625 49.34 -16.57375 48.68 -16 48 C-15.01 48 -14.02 48 -13 48 C-13.97447737 51.50811852 -14.92157031 52.93404776 -17.75 55.3125 C-21.40790174 57.21179514 -22.96468637 57.82353339 -27 57 C-29.55537704 55.21381726 -31.79131937 53.19561151 -34 51 C-33.57950317 46.09420368 -31.52156758 44.2814607 -28 41 C-27.236875 40.030625 -26.47375 39.06125 -25.6875 38.0625 C-21.8794567 33.39885204 -16.60859213 29.251855 -11 27 C-8.421875 26.8046875 -8.421875 26.8046875 -5.75 26.875 C-4.85796875 26.89304688 -3.9659375 26.91109375 -3.046875 26.9296875 C-2.37140625 26.95289063 -1.6959375 26.97609375 -1 27 C-1.01160156 25.96359375 -1.02320313 24.9271875 -1.03515625 23.859375 C-1.04453837 22.48958514 -1.05363812 21.11979332 -1.0625 19.75 C-1.07087891 19.06808594 -1.07925781 18.38617188 -1.08789062 17.68359375 C-1.10428392 14.30657446 -1.05628768 11.22708361 0 8 C-4.29185102 10.6722846 -7.54666791 13.37899654 -10.9375 17.1875 C-11.79214844 18.1465625 -12.64679688 19.105625 -13.52734375 20.09375 C-16.37064754 23.43564261 -19.04172991 26.87218216 -21.625 30.41796875 C-22.07875 30.94003906 -22.5325 31.46210938 -23 32 C-23.66 32 -24.32 32 -25 32 C-25 32.66 -25 33.32 -25 34 C-27.47480097 36.55017562 -30.24823786 38.75579616 -33 41 C-33.55816406 41.46792969 -34.11632812 41.93585938 -34.69140625 42.41796875 C-36.1875 43.5625 -36.1875 43.5625 -39 45 C-41.875 44.25 -41.875 44.25 -44 43 C-44 40 -44 40 -41.6875 37.3125 C-39 35 -39 35 -36 35 C-36 34.34 -36 33.68 -36 33 C-34.42578125 31.4140625 -34.42578125 31.4140625 -32.3125 29.625 C-31.5803125 29.00109375 -30.848125 28.3771875 -30.09375 27.734375 C-28.51644714 26.42780323 -26.91911912 25.14535 -25.3125 23.875 C-22.93892076 22.01685478 -22.93892076 22.01685478 -20.75 19.75 C-16.98740534 15.98740534 -13.00372986 12.50238097 -9 9 C-8.40316406 8.46375 -7.80632812 7.9275 -7.19140625 7.375 C-3.34659091 4 -3.34659091 4 0 4 C0 2.68 0 1.36 0 0 Z " fill="#0E0E0E" transform="translate(362,173)"/>
<path d="M0 0 C0.70125 0.556875 1.4025 1.11375 2.125 1.6875 C2.723125 2.120625 3.32125 2.55375 3.9375 3 C5.81375629 5.66625894 5.65076951 7.53288293 5.125 10.6875 C3.48173687 11.72550967 1.8087523 12.71654379 0.125 13.6875 C-2.72175162 15.93381352 -5.42012366 18.35819697 -8.14648438 20.74804688 C-10.41955306 22.71272262 -12.50849648 24.50700161 -15.21484375 25.83984375 C-17.24615625 26.63243959 -17.24615625 26.63243959 -17.875 29.6875 C-19.6171875 31.40625 -19.6171875 31.40625 -21.75 33.1875 C-24.72884531 35.69015321 -24.72884531 35.69015321 -27.5078125 38.40625 C-28.875 39.6875 -28.875 39.6875 -30.875 39.6875 C-30.875 40.3475 -30.875 41.0075 -30.875 41.6875 C-31.865 41.6875 -32.855 41.6875 -33.875 41.6875 C-34.1225 42.30625 -34.37 42.925 -34.625 43.5625 C-36.09547178 46.06230203 -37.28903076 46.52066022 -39.875 47.6875 C-39.9242885 44.68090148 -39.92719656 41.69315165 -39.875 38.6875 C-39.85953125 37.78644531 -39.8440625 36.88539063 -39.828125 35.95703125 C-39.1658052 22.91301079 -30.74683761 12.88939399 -21.40625 4.34375 C-15.16345858 -1.13461798 -7.88732952 -3.60073739 0 0 Z " fill="#F7F7F7" transform="translate(356.875,166.3125)"/>
<path d="M0 0 C1.13199353 0.9080162 2.25532363 1.82683826 3.375 2.75 C4.00148437 3.26046875 4.62796875 3.7709375 5.2734375 4.296875 C7 6 7 6 7.9765625 8.078125 C9.29326223 10.55070616 10.4861847 10.82040653 13 12 C14.88161427 13.52933581 16.73272906 15.09650076 18.5625 16.6875 C24.06928145 21.37212334 29.81132124 25.25359677 36 29 C38.02930352 30.26293142 40.05426636 31.53265298 42.07910156 32.80273438 C44.08613571 34.06143018 46.09530671 35.3166195 48.10546875 36.5703125 C52.07187466 39.04437718 56.03614419 41.52185219 60 44 C59.01 44.495 59.01 44.495 58 45 C57.505 45.99 57.505 45.99 57 47 C57 46.34 57 45.68 57 45 C56.01 45.33 55.02 45.66 54 46 C48.77024068 46.26950907 44.00205559 45.59210913 38.9375 44.375 C38.20378174 44.2004126 37.47006348 44.0258252 36.71411133 43.84594727 C28.47348423 41.77355546 18.26256879 38.94718762 12 33 C11.75 29.3125 11.75 29.3125 12 26 C11.34 26 10.68 26 10 26 C9.67 25.01 9.34 24.02 9 23 C7.71387324 24.05978933 7.71387324 24.05978933 7.90234375 26.50390625 C7.91394531 27.51324219 7.92554688 28.52257812 7.9375 29.5625 C7.94652344 30.57441406 7.95554688 31.58632813 7.96484375 32.62890625 C7.97644531 33.41136719 7.98804688 34.19382812 8 35 C5.89334691 31.47135607 5.48761465 28.17394306 5 24.125 C4.21288764 17.61726741 3.42670436 12.07250474 -1.125 7.125 C-1.66382813 6.52945312 -2.20265625 5.93390625 -2.7578125 5.3203125 C-3.16773438 4.88460938 -3.57765625 4.44890625 -4 4 C-2.68 2.68 -1.36 1.36 0 0 Z " fill="#131313" transform="translate(183,281)"/>
<path d="M0 0 C0.495 0.268125 0.99 0.53625 1.5 0.8125 C2.325 1.204375 3.15 1.59625 4 2 C5.051875 2.53625 6.10375 3.0725 7.1875 3.625 C16.27516105 7.01361937 27.60569286 5.24753374 37 4 C53.04198644 2.35466806 64.01631133 9.77849183 76.4296875 18.86328125 C77.70199219 19.92095703 77.70199219 19.92095703 79 21 C79 21.66 79 22.32 79 23 C74.41326853 21.37959101 70.48954713 18.98096517 66.375 16.4375 C61.39366431 13.30658452 61.39366431 13.30658452 56 11 C56 11.99 56 12.98 56 14 C54.948125 13.67 53.89625 13.34 52.8125 13 C49.61126643 12.16033218 47.2588992 11.80249096 44 12 C43.67 12.66 43.34 13.32 43 14 C41.68 14 40.36 14 39 14 C39 14.99 39 15.98 39 17 C39.66 17 40.32 17 41 17 C40.34 18.32 39.68 19.64 39 21 C31.5263755 20.50992626 31.5263755 20.50992626 29 18.0625 C28 16 28 16 28 14 C25.69 14 23.38 14 21 14 C21.997308 15.7286672 22.99506401 17.45707905 23.99609375 19.18359375 C25 21 25 21 25.9375 23.3125 C27.49435881 25.7851581 29.26072494 26.0894804 32 27 C36.33027877 27.59880129 41.02500967 28.16152095 44.90625 25.87890625 C46.30318098 24.62095565 47.65443353 23.31274778 49 22 C50.32 22 51.64 22 53 22 C51.79620632 26.41391016 50.64811617 29.16257631 47 32 C41.98516784 34.44910408 37.29683174 34.52879694 32 33 C26.87128055 30.21610492 23.19076734 26.26247272 19.5546875 21.78125 C17.2955115 19.19284735 14.70957635 17.05826571 12.09375 14.83984375 C9.13363478 12.23869773 6.40526541 9.43013443 3.6640625 6.6015625 C2.07577267 4.91371276 2.07577267 4.91371276 0 4 C0 2.68 0 1.36 0 0 Z " fill="#131313" transform="translate(199,204)"/>
<path d="M0 0 C3.38039203 -0.29030084 6.62793569 -0.43013734 10 0 C12.4375 2.25 12.4375 2.25 14 5 C14.53625 5.66 15.0725 6.32 15.625 7 C17.16067365 9.23370712 18.04353085 11.47218867 19 14 C19.33 14.33 19.66 14.66 20 15 C20.37088847 16.61684194 20.69743597 18.24399077 21 19.875 C21.52662337 22.69737213 22.0900606 25.27018179 23 28 C23.84648532 37.28681962 24.66087138 48.08717613 19 56 C17 58 17 58 13.375 58.125 C12.26125 58.08375 11.1475 58.0425 10 58 C10.03552979 57.3608667 10.07105957 56.7217334 10.10766602 56.06323242 C10.26743177 53.10503221 10.41501336 50.14633686 10.5625 47.1875 C10.61857422 46.18267578 10.67464844 45.17785156 10.73242188 44.14257812 C11.21354239 34.1673462 10.95404643 25.0244228 7.1875 15.6875 C6.93935547 15.02427734 6.69121094 14.36105469 6.43554688 13.67773438 C5.17087407 10.41790345 3.78429922 7.5302046 1.80078125 4.64453125 C0 2 0 2 0 0 Z " fill="#F3F3F3" transform="translate(322,88)"/>
<path d="M0 0 C1.23243716 18.02096997 -6.16481215 30.98808686 -15 46 C-15.41926758 46.71494629 -15.83853516 47.42989258 -16.27050781 48.16650391 C-22.57350476 58.87960881 -22.57350476 58.87960881 -26.015625 63.99609375 C-28.1279304 67.19365842 -30.00548342 70.46764203 -31.875 73.8125 C-34.58568616 78.62456653 -37.44518725 83.24248953 -40.57421875 87.796875 C-42.1789604 90.27653058 -43.55583659 92.82728627 -44.9375 95.4375 C-50.51458813 105.75149156 -54.70529623 112.23509874 -66 116 C-74.53808039 116.88796036 -82.72924252 114.85264968 -91 113 C-89.515 112.505 -89.515 112.505 -88 112 C-88 111.34 -88 110.68 -88 110 C-87.37996094 110.0721875 -86.75992187 110.144375 -86.12109375 110.21875 C-80.48788833 110.80912961 -74.8482321 111.1848173 -69.1875 111.375 C-67.96417969 111.42398438 -66.74085938 111.47296875 -65.48046875 111.5234375 C-61.12751116 110.86878395 -58.81543892 109.23433181 -56 106 C-53.93676553 103.16564351 -52.14352514 100.21247732 -50.375 97.1875 C-49.9109375 96.41857422 -49.446875 95.64964844 -48.96875 94.85742188 C-46.07251185 90.00990463 -43.46697891 85.07873357 -41 80 C-40.34 80 -39.68 80 -39 80 C-38.7421875 79.13246094 -38.484375 78.26492188 -38.21875 77.37109375 C-36.97226834 73.92329351 -35.44757358 71.16345219 -33.5 68.0625 C-32.98095093 67.22996704 -32.98095093 67.22996704 -32.45141602 66.38061523 C-30.52504466 63.31657267 -28.53791673 60.30076427 -26.49609375 57.3125 C-20.90532429 49.12838317 -16.23568105 40.96834867 -12 32 C-11.23364726 30.47690396 -10.46362705 28.95563862 -9.6875 27.4375 C-6.30972587 20.55684899 -3.9376578 13.8652161 -4.0625 6.125 C-4 3 -4 3 -2.5625 1.0625 C-1 0 -1 0 0 0 Z " fill="#252525" transform="translate(373,237)"/>
<path d="M0 0 C1.32354492 0.00749268 1.32354492 0.00749268 2.67382812 0.01513672 C15.56549712 0.35353136 26.3079736 5.55761006 37.5625 11.5 C40.72751862 13.04135659 43.89526478 14.57675115 47.06640625 16.10546875 C49.34177916 17.37668648 50.85763321 18.55404094 52.5625 20.5 C51.5725 21.985 51.5725 21.985 50.5625 23.5 C49.2425 23.5 47.9225 23.5 46.5625 23.5 C46.2325 24.16 45.9025 24.82 45.5625 25.5 C44.23798828 24.64728516 44.23798828 24.64728516 42.88671875 23.77734375 C41.03326613 22.58418849 39.17916343 21.39208596 37.32348633 20.20239258 C34.37257686 18.31042368 31.42812749 16.41156095 28.5 14.484375 C25.88140592 12.77336182 23.23643579 11.1228604 20.5625 9.5 C19.88703125 9.06429687 19.2115625 8.62859375 18.515625 8.1796875 C8.89411897 2.84683726 -4.15207441 4.53907138 -14.3125 7.4375 C-16.35842564 8.11222016 -18.40090188 8.79762752 -20.4375 9.5 C-21.76636251 9.85073256 -23.09794668 10.19261458 -24.4375 10.5 C-24.4375 9.84 -24.4375 9.18 -24.4375 8.5 C-23.06344827 7.72747759 -21.68820366 6.9570768 -20.3125 6.1875 C-19.54679688 5.75824219 -18.78109375 5.32898438 -17.9921875 4.88671875 C-17.14914063 4.42910156 -16.30609375 3.97148437 -15.4375 3.5 C-14.54160156 2.95988281 -13.64570313 2.41976562 -12.72265625 1.86328125 C-8.38940155 0.06505784 -4.64964608 -0.03457975 0 0 Z " fill="#111111" transform="translate(229.4375,182.5)"/>
<path d="M0 0 C0.33 0 0.66 0 1 0 C1 1.65 1 3.3 1 5 C2.32 5.33 3.64 5.66 5 6 C4.4280542 11.23738936 2.71762319 15.29809111 0.375 19.9375 C0.01817139 20.64825684 -0.33865723 21.35901367 -0.70629883 22.09130859 C-3.02029201 26.53274046 -5.38188661 30.19125974 -9.26171875 33.4453125 C-11.20930919 35.09808813 -11.20930919 35.09808813 -13.25 37.84375 C-16.14174605 41.3810774 -19.55871083 43.81577401 -23.3125 46.375 C-23.95767578 46.82488281 -24.60285156 47.27476562 -25.26757812 47.73828125 C-26.83984147 48.8330424 -28.4191954 49.91760876 -30 51 C-30.66 50.01 -31.32 49.02 -32 48 C-34.05003955 46.80767387 -34.05003955 46.80767387 -36 46 C-34.04532248 44.66101601 -32.0866421 43.32870953 -30.125 42 C-29.03445312 41.2575 -27.94390625 40.515 -26.8203125 39.75 C-24 38 -24 38 -22 38 C-21.76796875 37.4328125 -21.5359375 36.865625 -21.296875 36.28125 C-19.68227216 33.44110525 -17.66594568 31.69631426 -15.25 29.5 C-10.57528909 24.95364098 -7.81220577 20.48826111 -5.15625 14.56640625 C-4 12 -4 12 -2 9 C-1.33386665 6.72461677 -1.33386665 6.72461677 -0.875 4.3125 C-0.70742187 3.50425781 -0.53984375 2.69601562 -0.3671875 1.86328125 C-0.18542969 0.94095703 -0.18542969 0.94095703 0 0 Z " fill="#151515" transform="translate(189,356)"/>
<path d="M0 0 C5.87879688 3.08139836 11.29618724 6.51075236 16.640625 10.44921875 C19.04386689 12.02883304 21.33312422 12.94121051 24 14 C26.23161722 15.27250813 28.43896459 16.58818849 30.625 17.9375 C31.19734375 18.28490234 31.7696875 18.63230469 32.359375 18.99023438 C35.21653539 20.7543648 37.76819982 22.47537498 40 25 C26.60450018 25.66977499 14.30696056 21.00788441 2.640625 14.73046875 C0.17047906 12.12505292 0.38936577 9.8314857 0.25 6.3125 C0.19328125 5.13300781 0.1365625 3.95351563 0.078125 2.73828125 C0.03945312 1.38283203 0.03945312 1.38283203 0 0 Z " fill="#EFEFEF" transform="translate(194,301)"/>
<path d="M0 0 C3.85645121 -0.22036864 6.49223216 0.39644899 10 2 C9.67 2.66 9.34 3.32 9 4 C8.34 4 7.68 4 7 4 C7 4.66 7 5.32 7 6 C7.66 6 8.32 6 9 6 C9.495 8.97 9.495 8.97 10 12 C8.948125 11.8453125 8.948125 11.8453125 7.875 11.6875 C4.74839755 11.73287957 4.74839755 11.73287957 2.375 14.5 C-0.50221005 17.13059205 -2.69711656 17.41698505 -6.5625 17.5 C-10.86377805 17.26749848 -13.73039091 16.98935688 -17 14 C-23 7.07692308 -23 7.07692308 -23 3 C-19.6875 2.6875 -19.6875 2.6875 -16 3 C-15.525625 3.804375 -15.05125 4.60875 -14.5625 5.4375 C-13.30501751 8.15226206 -13.30501751 8.15226206 -11.046875 8.5546875 C-9.03911276 8.78635237 -7.01864355 8.90072245 -5 9 C-4.34 8.01 -3.68 7.02 -3 6 C-3.66 6 -4.32 6 -5 6 C-5 5.01 -5 4.02 -5 3 C-3.68 3 -2.36 3 -1 3 C-0.67 2.01 -0.34 1.02 0 0 Z " fill="#EEEEEE" transform="translate(243,215)"/>
<path d="M0 0 C0.66 0.33 1.32 0.66 2 1 C0.59132499 5.28760645 -1.48207035 7.91917898 -4.5625 11.1875 C-7.64185798 14.34188937 -7.64185798 14.34188937 -10 18 C-10.66 18 -11.32 18 -12 18 C-12 18.66 -12 19.32 -12 20 C-14.47480097 22.55017562 -17.24823786 24.75579616 -20 27 C-20.55816406 27.46792969 -21.11632812 27.93585938 -21.69140625 28.41796875 C-23.1875 29.5625 -23.1875 29.5625 -26 31 C-28.875 30.25 -28.875 30.25 -31 29 C-31 26 -31 26 -28.6875 23.3125 C-26 21 -26 21 -23 21 C-23 20.34 -23 19.68 -23 19 C-21.42578125 17.4140625 -21.42578125 17.4140625 -19.3125 15.625 C-18.5803125 15.00109375 -17.848125 14.3771875 -17.09375 13.734375 C-15.51644714 12.42780323 -13.91911912 11.14535 -12.3125 9.875 C-9.88303535 7.97938029 -9.88303535 7.97938029 -7.5 5.4375 C-5.10891213 3.10618933 -2.99784033 1.45840881 0 0 Z " fill="#151515" transform="translate(349,187)"/>
<path d="M0 0 C0.73283203 0.11762695 1.46566406 0.23525391 2.22070312 0.35644531 C6.96669429 1.20689561 11.00859271 2.641821 15.375 4.6875 C15.375 5.6775 15.375 6.6675 15.375 7.6875 C8.96978168 7.83511525 3.05595376 7.32022533 -3.25 6.25 C-11.71327453 4.88886827 -20.06133986 4.06378204 -28.625 3.6875 C-28.625 2.3675 -28.625 1.0475 -28.625 -0.3125 C-21.10452737 -4.07273632 -8.00810325 -1.31461344 0 0 Z " fill="#E3E3E3" transform="translate(163.625,51.3125)"/>
<path d="M0 0 C1.6254308 0.14095064 3.25034051 0.28792087 4.875 0.4375 C5.77992188 0.51871094 6.68484375 0.59992188 7.6171875 0.68359375 C10 1 10 1 12 2 C12.33 1.34 12.66 0.68 13 0 C13.515625 1.03125 14.03125 2.0625 14.5625 3.125 C18.22977271 9.52652904 23.47786823 12.84913284 30 16 C30.90878906 16.47179687 31.81757813 16.94359375 32.75390625 17.4296875 C39.99381096 21.15536864 47.35251996 24.21237018 55 27 C55 29 55 31 55 33 C49.7626241 31.584493 45.3587355 29.06819848 40.66015625 26.4375 C37.91137085 24.89165988 37.91137085 24.89165988 34.5 23.5625 C20.77090601 17.43344018 20.77090601 17.43344018 18 11 C17.1028125 10.566875 17.1028125 10.566875 16.1875 10.125 C14 9 14 9 11.9375 5.875 C10.0882676 3.46397548 9.30725128 3.04339707 6.234375 2.609375 C3.46697809 2.62356678 0.75452007 2.73950248 -2 3 C-1.34 2.67 -0.68 2.34 0 2 C0 1.34 0 0.68 0 0 Z " fill="#1E1E1E" transform="translate(261,364)"/>
<path d="M0 0 C-0.33 6.27 -0.66 12.54 -1 19 C-2.52625 19.103125 -4.0525 19.20625 -5.625 19.3125 C-10.03972625 19.73086868 -13.07665835 20.89479229 -17 23 C-17.99 22.67 -18.98 22.34 -20 22 C-17.85264648 16.0120393 -14.8376633 12.16554255 -10.4375 7.625 C-9.84775391 6.99722656 -9.25800781 6.36945313 -8.65039062 5.72265625 C-3.21819317 0 -3.21819317 0 0 0 Z " fill="#F6F6F6" transform="translate(362,181)"/>
<path d="M0 0 C1.14918991 3.44756974 0.99934678 4.55617262 0 8 C-1.19118185 10.37958056 -2.40904311 12.64752031 -3.75 14.9375 C-4.08515625 15.53240234 -4.4203125 16.12730469 -4.765625 16.74023438 C-8.7796499 23.69635707 -12.55683561 28.57172237 -20.34375 31.30859375 C-29.59964355 33.7178484 -38.89742106 31.03897768 -48 29 C-47.01 28.67 -46.02 28.34 -45 28 C-45 27.34 -45 26.68 -45 26 C-44.37996094 26.0721875 -43.75992187 26.144375 -43.12109375 26.21875 C-37.48788833 26.80912961 -31.8482321 27.1848173 -26.1875 27.375 C-24.96417969 27.42398437 -23.74085938 27.47296875 -22.48046875 27.5234375 C-18.12290008 26.86809047 -15.81167976 25.24457485 -13 22 C-10.89663346 19.08155704 -9.06036598 16.04420837 -7.25 12.9375 C-6.76917969 12.13505859 -6.28835938 11.33261719 -5.79296875 10.50585938 C-3.73693975 7.05528145 -1.76427824 3.61008598 0 0 Z " fill="#161616" transform="translate(330,321)"/>
<path d="M0 0 C-1 3 -1 3 -3.17382812 4.11914062 C-4.11677734 4.46138672 -5.05972656 4.80363281 -6.03125 5.15625 C-7.07023437 5.53910156 -8.10921875 5.92195313 -9.1796875 6.31640625 C-10.27539062 6.70699219 -11.37109375 7.09757812 -12.5 7.5 C-13.56476563 7.89058594 -14.62953125 8.28117187 -15.7265625 8.68359375 C-18.81102135 9.80900441 -21.90271354 10.91044073 -25 12 C-25.88558594 12.31324219 -26.77117187 12.62648438 -27.68359375 12.94921875 C-28.87662109 13.36107422 -28.87662109 13.36107422 -30.09375 13.78125 C-30.78146484 14.01908203 -31.46917969 14.25691406 -32.17773438 14.50195312 C-34 15 -34 15 -37 15 C-36.62965838 12.46751686 -36.27255213 11.25865991 -34.390625 9.47265625 C-23.2754624 2.15044147 -13.34451453 -0.90030458 0 0 Z " fill="#E4E4E4" transform="translate(359,39)"/>
<path d="M0 0 C0.85142578 -0.01160156 1.70285156 -0.02320313 2.58007812 -0.03515625 C8.60726455 -0.00761389 13.59827485 1.14337668 19.1875 3.375 C18.5275 3.705 17.8675 4.035 17.1875 4.375 C17.6825 5.365 17.6825 5.365 18.1875 6.375 C19.1775 6.705 20.1675 7.035 21.1875 7.375 C20.8575 8.035 20.5275 8.695 20.1875 9.375 C19.07375 8.715 17.96 8.055 16.8125 7.375 C4.88270908 2.11461975 -9.05497377 5.32011907 -20.8125 9.375 C-22.14136251 9.72573256 -23.47294668 10.06761458 -24.8125 10.375 C-24.8125 9.715 -24.8125 9.055 -24.8125 8.375 C-23.43844827 7.60247759 -22.06320366 6.8320768 -20.6875 6.0625 C-19.92179688 5.63324219 -19.15609375 5.20398438 -18.3671875 4.76171875 C-17.52414063 4.30410156 -16.68109375 3.84648437 -15.8125 3.375 C-14.92433594 2.83230469 -14.03617188 2.28960937 -13.12109375 1.73046875 C-8.66122597 -0.09665536 -4.77075102 -0.06413258 0 0 Z " fill="#0F0F0F" transform="translate(229.8125,182.625)"/>
<path d="M0 0 C0.99 0.66 1.98 1.32 3 2 C3 2.66 3 3.32 3 4 C8.33183289 6.40077105 13.21977137 6.87553463 19 6 C21.40158053 4.58759506 22.98205104 2.96873069 25 1 C26.32 1 27.64 1 29 1 C27.79620632 5.41391016 26.64811617 8.16257631 23 11 C17.99489333 13.44435442 13.28622023 13.54218567 8 12 C3.427552 9.45975111 0.09867931 6.86176462 -2 2 C-1.34 1.34 -0.68 0.68 0 0 Z " fill="#262626" transform="translate(223,225)"/>
<path d="M0 0 C-0.875 4.75 -0.875 4.75 -2 7 C-1.01 7.33 -0.02 7.66 1 8 C-1.77842595 10.77842595 -3.78366581 11.94471208 -7.75 12.125 C-8.4925 12.08375 -9.235 12.0425 -10 12 C-9.2884375 11.38125 -9.2884375 11.38125 -8.5625 10.75 C-6.82100687 8.7995277 -6.53446781 7.51147981 -6 5 C-7.05960937 5.01160156 -8.11921875 5.02320313 -9.2109375 5.03515625 C-10.59895658 5.04453476 -11.98697755 5.05363489 -13.375 5.0625 C-14.07367188 5.07087891 -14.77234375 5.07925781 -15.4921875 5.08789062 C-20.7734375 5.11328125 -20.7734375 5.11328125 -23 4 C-23 3.01 -23 2.02 -23 1 C-19.72922836 0.83210783 -16.45837336 0.66589762 -13.1875 0.5 C-12.25873047 0.45230469 -11.32996094 0.40460938 -10.37304688 0.35546875 C-9.0340332 0.28779297 -9.0340332 0.28779297 -7.66796875 0.21875 C-6.84578857 0.17685547 -6.0236084 0.13496094 -5.17651367 0.09179688 C-3.45227071 0.01907502 -1.72577585 0 0 0 Z " fill="#181818" transform="translate(317,313)"/>
<path d="M0 0 C0.598125 0.185625 1.19625 0.37125 1.8125 0.5625 C4.16408762 1.22093687 4.16408762 1.22093687 7 0 C8.6835809 0.39166639 10.34881415 0.86369529 12 1.375 C20.535627 3.67709645 29.21241186 3.7334309 38 4 C38 4.33 38 4.66 38 5 C30.74 5.33 23.48 5.66 16 6 C16 6.99 16 7.98 16 9 C9.80481527 8.58411954 4.73310689 7.39748106 -1 5 C-0.67 3.35 -0.34 1.7 0 0 Z " fill="#252525" transform="translate(212,253)"/>
<path d="M0 0 C10.2173972 0.33499663 18.70875412 4.90581482 26 12 C26 12.66 26 13.32 26 14 C23.03 14 20.06 14 17 14 C16.67 13.01 16.34 12.02 16 11 C14.24565172 9.99123294 14.24565172 9.99123294 12 9 C9.90090711 7.67039323 7.81859979 6.31406822 5.75 4.9375 C4.67234375 4.22464844 3.5946875 3.51179688 2.484375 2.77734375 C1.66453125 2.19082031 0.8446875 1.60429688 0 1 C0 0.67 0 0.34 0 0 Z " fill="#EDEDED" transform="translate(299,68)"/>
<path d="M0 0 C0 3 0 3 -2 6 C-1.01 6 -0.02 6 1 6 C1 6.66 1 7.32 1 8 C2.32 7.67 3.64 7.34 5 7 C5 7.99 5 8.98 5 10 C3.730447 10.64834654 2.45930294 11.29357815 1.1875 11.9375 C0.47980469 12.29714844 -0.22789062 12.65679687 -0.95703125 13.02734375 C-3 14 -3 14 -6 15 C-6 15.66 -6 16.32 -6 17 C-4.68 16.67 -3.36 16.34 -2 16 C-2.33 16.66 -2.66 17.32 -3 18 C-3.99 18 -4.98 18 -6 18 C-6.33 18.66 -6.66 19.32 -7 20 C-7 19.34 -7 18.68 -7 18 C-8.65 18.66 -10.3 19.32 -12 20 C-11.42676628 15.78864291 -9.99298383 12.98705648 -7.6875 9.4375 C-7.09324219 8.50808594 -6.49898437 7.57867187 -5.88671875 6.62109375 C-4.10083598 4.14008477 -2.22512921 2.08759363 0 0 Z " fill="#EBEBEB" transform="translate(211,176)"/>
<path d="M0 0 C-0.1875 1.875 -0.1875 1.875 -1 4 C-5.28993172 6.37596218 -9.5431484 6.23581603 -14.3125 6.125 C-15.05306641 6.11597656 -15.79363281 6.10695313 -16.55664062 6.09765625 C-18.37123467 6.07424213 -20.18566071 6.03837615 -22 6 C-22.33 5.34 -22.66 4.68 -23 4 C-6.27631579 -3.13815789 -6.27631579 -3.13815789 0 0 Z " fill="#EFEFEF" transform="translate(318,301)"/>
<path d="M0 0 C0.99 0.66 1.98 1.32 3 2 C3.91007813 1.63261719 4.82015625 1.26523437 5.7578125 0.88671875 C9 0 9 0 12.4296875 1.51953125 C13.59174459 2.26298369 14.74016217 3.0281268 15.875 3.8125 C16.46796875 4.19470703 17.0609375 4.57691406 17.671875 4.97070312 C19.14462095 5.93613221 20.57665808 6.96311441 22 8 C22 8.33 22 8.66 22 9 C14.73784782 9.36310761 4.92015399 9.39912087 -0.8515625 4.39453125 C-1.23054687 3.93433594 -1.60953125 3.47414063 -2 3 C-1.34 2.01 -0.68 1.02 0 0 Z " fill="#ECECEC" transform="translate(212,317)"/>
<path d="M0 0 C0.66 0.33 1.32 0.66 2 1 C2 1.66 2 2.32 2 3 C2.556875 3.20625 3.11375 3.4125 3.6875 3.625 C6.92501302 5.55000774 8.68231141 8.03850902 11 11 C10.34 11 9.68 11 9 11 C9 12.32 9 13.64 9 15 C6.69 15 4.38 15 2 15 C1.67 13.02 1.34 11.04 1 9 C-1.31 8.67 -3.62 8.34 -6 8 C-4.95125002 5.37812506 -4.35068687 4.20628639 -1.875 2.75 C-1.25625 2.5025 -0.6375 2.255 0 2 C0 1.34 0 0.68 0 0 Z " fill="#DDDDDD" transform="translate(216,223)"/>
<path d="M0 0 C0.33 0.66 0.66 1.32 1 2 C1.99 1.67 2.98 1.34 4 1 C3.67 9.91 3.34 18.82 3 28 C2.67 28 2.34 28 2 28 C1.505 18.595 1.505 18.595 1 9 C-4.19130616 10.03826123 -4.73375591 10.25934554 -7.8125 14.0625 C-8.41707031 14.79597656 -9.02164062 15.52945313 -9.64453125 16.28515625 C-10.31548828 17.13400391 -10.31548828 17.13400391 -11 18 C-11.66 17.01 -12.32 16.02 -13 15 C-13.66 14.67 -14.32 14.34 -15 14 C-13.25707481 12.5125035 -11.50538246 11.03527508 -9.75 9.5625 C-8.77546875 8.73878906 -7.8009375 7.91507813 -6.796875 7.06640625 C-4.3404173 5.25150943 -2.96615903 4.38842559 0 4 C0 2.68 0 1.36 0 0 Z " fill="#303030" transform="translate(362,173)"/>
<path d="M0 0 C0.66 0.33 1.32 0.66 2 1 C1.49357808 5.35522853 0.61588503 8.44239635 -2 12 C-2.66 12 -3.32 12 -4 12 C-4.33 12.99 -4.66 13.98 -5 15 C-11.05714286 19 -11.05714286 19 -16 19 C-16 18.34 -16 17.68 -16 17 C-14.61408765 16.09678789 -13.1895666 15.25248045 -11.75 14.4375 C-7.22339683 11.56402933 -5.54328868 8.9770391 -3.8515625 3.953125 C-3 2 -3 2 0 0 Z " fill="#111111" transform="translate(323,249)"/>
<path d="M0 0 C1.6254308 0.14095064 3.25034051 0.28792087 4.875 0.4375 C5.77992188 0.51871094 6.68484375 0.59992188 7.6171875 0.68359375 C10 1 10 1 12 2 C12.33 1.34 12.66 0.68 13 0 C13.515625 1.03125 14.03125 2.0625 14.5625 3.125 C17.83006144 8.83743896 22.64404147 13.07395196 29 15 C27.68 15.99 26.36 16.98 25 18 C19.125 14.375 19.125 14.375 18 11 C17.4225 10.731875 16.845 10.46375 16.25 10.1875 C14 9 14 9 11.9375 5.875 C10.0882676 3.46397548 9.30725128 3.04339707 6.234375 2.609375 C3.46697809 2.62356678 0.75452007 2.73950248 -2 3 C-1.34 2.67 -0.68 2.34 0 2 C0 1.34 0 0.68 0 0 Z " fill="#2E2E2E" transform="translate(261,364)"/>
<path d="M0 0 C1.37562854 1.28965176 2.70766393 2.62689293 4 4 C4 4.66 4 5.32 4 6 C4.66 6.33 5.32 6.66 6 7 C5.67 7.66 5.34 8.32 5 9 C4.01 8.67 3.02 8.34 2 8 C1.71125 8.639375 1.4225 9.27875 1.125 9.9375 C0 12 0 12 -2 13 C-7.53846154 13.23076923 -7.53846154 13.23076923 -10 12 C-10 11.01 -10 10.02 -10 9 C-8.02 8.67 -6.04 8.34 -4 8 C-3.896875 7.4225 -3.79375 6.845 -3.6875 6.25 C-2.90207202 3.67950842 -1.69495803 2.06342716 0 0 Z " fill="#E5E5E5" transform="translate(344,213)"/>
<path d="M0 0 C-0.33 0.99 -0.66 1.98 -1 3 C-0.01 3.99 0.98 4.98 2 6 C-3.28 7.98 -8.56 9.96 -14 12 C-14 11.01 -14 10.02 -14 9 C-13.01 9 -12.02 9 -11 9 C-11.33 8.01 -11.66 7.02 -12 6 C-11.34 6 -10.68 6 -10 6 C-10 5.01 -10 4.02 -10 3 C-10.66 2.67 -11.32 2.34 -12 2 C-10.56342755 1.66269158 -9.12569907 1.33030409 -7.6875 1 C-6.88699219 0.814375 -6.08648437 0.62875 -5.26171875 0.4375 C-3 0 -3 0 0 0 Z " fill="#070707" transform="translate(345,33)"/>
<path d="M0 0 C2 3 2 3 1.7578125 4.97265625 C1.54898437 5.66230469 1.34015625 6.35195312 1.125 7.0625 C0.25224613 9.98457419 0.25224613 9.98457419 0 13 C1.65 13.33 3.3 13.66 5 14 C5 14.99 5 15.98 5 17 C1.87709365 16.51421457 -0.99580359 16.0013988 -4 15 C-4 11.04 -4 7.08 -4 3 C-4.99 2.67 -5.98 2.34 -7 2 C-4.35261084 0.5393715 -3.10551666 0 0 0 Z " fill="#0E0E0E" transform="translate(366,207)"/>
<path d="M0 0 C0.66 1.32 1.32 2.64 2 4 C0.625 6 0.625 6 -1 8 C-1.66 8 -2.32 8 -3 8 C-3.2475 8.5775 -3.495 9.155 -3.75 9.75 C-5.18299988 12.32939979 -6.78424676 14.06121592 -9 16 C-9.66 16 -10.32 16 -11 16 C-11.33 16.66 -11.66 17.32 -12 18 C-12.875 15.875 -12.875 15.875 -13 13 C-11.30628631 10.64424838 -9.33495622 8.72018294 -7 7 C-6.34 7 -5.68 7 -5 7 C-5 6.34 -5 5.68 -5 5 C-4.34 5 -3.68 5 -3 5 C-2.690625 4.360625 -2.38125 3.72125 -2.0625 3.0625 C-1 1 -1 1 0 0 Z " fill="#E0E0E0" transform="translate(342,200)"/>
<path d="M0 0 C2.475 0.99 2.475 0.99 5 2 C5.36075949 6.44936709 5.36075949 6.44936709 3.8125 8.8125 C1.31014509 10.4519739 -0.06037803 10.50188668 -3 10 C-5.3125 8 -5.3125 8 -7 6 C-6.67 5.34 -6.34 4.68 -6 4 C-5.01 4.33 -4.02 4.66 -3 5 C-3 4.34 -3 3.68 -3 3 C-2.34 3 -1.68 3 -1 3 C-0.67 2.01 -0.34 1.02 0 0 Z " fill="#F9F9F9" transform="translate(332,228)"/>
<path d="M0 0 C9.34375 4.3125 9.34375 4.3125 10.875 8.25 C10.936875 9.11625 10.936875 9.11625 11 10 C8.8125 10.75 8.8125 10.75 6 11 C3.1875 9.1875 3.1875 9.1875 1 7 C1 6.34 1 5.68 1 5 C0.34 5 -0.32 5 -1 5 C-0.67 3.35 -0.34 1.7 0 0 Z " fill="#0A0A0A" transform="translate(200,298)"/>
<path d="M0 0 C0.33 1.32 0.66 2.64 1 4 C1.66 4 2.32 4 3 4 C3 6.31 3 8.62 3 11 C3.66 11.33 4.32 11.66 5 12 C4.25 13.9375 4.25 13.9375 3 16 C0.921875 16.62890625 0.921875 16.62890625 -1 17 C-1.22126178 14.54220024 -1.42750395 12.08472352 -1.625 9.625 C-1.68945312 8.92632812 -1.75390625 8.22765625 -1.8203125 7.5078125 C-1.96119739 5.67630889 -1.98761659 3.83687252 -2 2 C-1.34 1.34 -0.68 0.68 0 0 Z " fill="#0C0C0C" transform="translate(192,303)"/>
<path d="M0 0 C6.93 0.33 13.86 0.66 21 1 C18 4 18 4 14.27734375 4.328125 C12.83053368 4.31751594 11.38377019 4.29092011 9.9375 4.25 C8.83825195 4.24226563 8.83825195 4.24226563 7.71679688 4.234375 C2.30986873 4.15493437 2.30986873 4.15493437 0 3 C0 2.01 0 1.02 0 0 Z " fill="#E9E9E9" transform="translate(294,314)"/>
<path d="M0 0 C1.29744141 -0.0309375 1.29744141 -0.0309375 2.62109375 -0.0625 C8.73246555 -0.09914991 13.71177196 0.96402119 19.375 3.25 C18.715 3.58 18.055 3.91 17.375 4.25 C17.705 4.91 18.035 5.57 18.375 6.25 C19.365 6.58 20.355 6.91 21.375 7.25 C21.045 7.91 20.715 8.57 20.375 9.25 C18.93377387 8.65477663 17.49714132 8.04842381 16.0625 7.4375 C15.26199219 7.10105469 14.46148437 6.76460937 13.63671875 6.41796875 C11.375 5.25 11.375 5.25 10.10546875 3.62890625 C7.16433296 1.2852924 3.59313287 1.9028883 0 2 C-0.75539062 2.00515625 -1.51078125 2.0103125 -2.2890625 2.015625 C-6.18516145 2.07011589 -9.82211311 2.31064148 -13.625 3.25 C-11.35458971 -1.29082059 -4.42271918 0.02567616 0 0 Z " fill="#434343" transform="translate(229.625,182.75)"/>
<path d="M0 0 C1.32 0 2.64 0 4 0 C2.80340829 4.38750292 1.68904984 7.23321262 -2 10 C-5.25 10.75 -5.25 10.75 -8 11 C-8.66 10.01 -9.32 9.02 -10 8 C-7.69 7.34 -5.38 6.68 -3 6 C-2.814375 5.071875 -2.814375 5.071875 -2.625 4.125 C-2 2 -2 2 0 0 Z " fill="#080808" transform="translate(248,226)"/>
<path d="M0 0 C3 1 3 1 4.16796875 3.06640625 C4.50441406 3.89011719 4.84085937 4.71382812 5.1875 5.5625 C5.53167969 6.38878906 5.87585938 7.21507812 6.23046875 8.06640625 C6.48441406 8.70449219 6.73835938 9.34257812 7 10 C3.49355661 10 1.72793862 8.78863256 -1.21875 7.015625 C-3.12874711 5.86966682 -3.12874711 5.86966682 -5.875 4.875 C-8 4 -8 4 -9 2 C-6.03 2.33 -3.06 2.66 0 3 C0 2.01 0 1.02 0 0 Z " fill="#D0D0D0" transform="translate(275,191)"/>
<path d="M0 0 C3.63 0 7.26 0 11 0 C11 0.66 11 1.32 11 2 C10.34 2 9.68 2 9 2 C8.67 2.66 8.34 3.32 8 4 C13.94 5.485 13.94 5.485 20 7 C19.34 7.66 18.68 8.32 18 9 C17.67 8.67 17.34 8.34 17 8 C15.31816052 7.76712992 13.6287584 7.58735834 11.9375 7.4375 C11.01839844 7.35371094 10.09929687 7.26992187 9.15234375 7.18359375 C8.08693359 7.09271484 8.08693359 7.09271484 7 7 C6.67 7.66 6.34 8.32 6 9 C5.34 8.01 4.68 7.02 4 6 C3.01 5.67 2.02 5.34 1 5 C0.67 3.35 0.34 1.7 0 0 Z " fill="#2C2C2C" transform="translate(315,81)"/>
<path d="M0 0 C0.66 0.33 1.32 0.66 2 1 C2 7.27 2 13.54 2 20 C0.02 20 -1.96 20 -4 20 C-3.01 19.67 -2.02 19.34 -1 19 C-1.01160156 17.96359375 -1.02320313 16.9271875 -1.03515625 15.859375 C-1.04453837 14.48958514 -1.05363812 13.11979332 -1.0625 11.75 C-1.07506836 10.72712891 -1.07506836 10.72712891 -1.08789062 9.68359375 C-1.10428392 6.30657446 -1.05628768 3.22708361 0 0 Z " fill="#1D1D1D" transform="translate(362,181)"/>
<path d="M0 0 C3.465 1.98 3.465 1.98 7 4 C7 5.32 7 6.64 7 8 C5.68 7.67 4.36 7.34 3 7 C2.67 7.99 2.34 8.98 2 10 C-0.3431213 9.74438677 -2.67843403 9.40729228 -5 9 C-5.33 8.34 -5.66 7.68 -6 7 C-4.35 6.67 -2.7 6.34 -1 6 C-1 5.34 -1 4.68 -1 4 C-0.34 4 0.32 4 1 4 C0.67 2.68 0.34 1.36 0 0 Z " fill="#131313" transform="translate(209,247)"/>
<path d="M0 0 C2.58396679 -0.08112454 5.16537568 -0.14054748 7.75 -0.1875 C8.47960937 -0.21263672 9.20921875 -0.23777344 9.9609375 -0.26367188 C14.78731876 -0.32948616 15.94866839 -0.03849871 20 3 C13.73 3 7.46 3 1 3 C0.67 2.01 0.34 1.02 0 0 Z " fill="#161616" transform="translate(222,184)"/>
<path d="M0 0 C5.66442374 0.36504064 10.00703705 1.0554321 15 4 C14.34 5.65 13.68 7.3 13 9 C11.01716521 7.88147781 9.03882377 6.75498675 7.0625 5.625 C5.40927734 4.68527344 5.40927734 4.68527344 3.72265625 3.7265625 C1 2 1 2 0 0 Z " fill="#E6E6E6" transform="translate(299,68)"/>
<path d="M0 0 C0.8677564 2.42971792 1.20863003 3.5380335 0.125 5.9375 C-0.24625 6.618125 -0.6175 7.29875 -1 8 C-1.185625 9.2684375 -1.185625 9.2684375 -1.375 10.5625 C-2.16017454 13.62468071 -3.36146987 14.38283637 -6 16 C-5.73958333 14.01432292 -5.47916667 12.02864583 -5.21875 10.04296875 C-4.946767 7.84528294 -4.946767 7.84528294 -5 5 C-2.5 2.3125 -2.5 2.3125 0 0 Z " fill="#1A1A1A" transform="translate(178,381)"/>
<path d="M0 0 C3.26954202 0.56371414 4.82575883 1.49962266 7 4 C6.34 5.65 5.68 7.3 5 9 C5.66 9 6.32 9 7 9 C6.67 9.66 6.34 10.32 6 11 C4.35 10.01 2.7 9.02 1 8 C0.67 9.65 0.34 11.3 0 13 C-0.33 13 -0.66 13 -1 13 C-1.08171488 8.83254097 -0.95553278 5.0610143 0 1 C0 0.67 0 0.34 0 0 Z " fill="#1A1A1A" transform="translate(194,294)"/>
<path d="M0 0 C0.66 0.33 1.32 0.66 2 1 C0.6062718 5.43458973 -1.60582235 7.87378374 -5 11 C-5.99 9.68 -6.98 8.36 -8 7 C-7.34 7 -6.68 7 -6 7 C-5.9071875 6.1028125 -5.9071875 6.1028125 -5.8125 5.1875 C-4.66061101 2.08626042 -2.93240408 1.35891897 0 0 Z " fill="#0D0D0D" transform="translate(349,187)"/>
<path d="M0 0 C11.385 0.99 11.385 0.99 23 2 C23 2.33 23 2.66 23 3 C20.89590361 3.02701408 18.79170822 3.04640223 16.6875 3.0625 C15.51574219 3.07410156 14.34398437 3.08570313 13.13671875 3.09765625 C10 3 10 3 7 2 C7 2.66 7 3.32 7 4 C0.375 4.25 0.375 4.25 -3 2 C-2.01 2 -1.02 2 0 2 C0 1.34 0 0.68 0 0 Z " fill="#545454" transform="translate(285,347)"/>
<path d="M0 0 C4.60853797 0.72008406 8.67237409 2.31295939 13 4 C13 4.99 13 5.98 13 7 C8.62065881 6.48041715 4.31196609 5.94324258 0 5 C0 4.34 0 3.68 0 3 C0.66 3 1.32 3 2 3 C2 2.34 2 1.68 2 1 C1.34 0.67 0.68 0.34 0 0 Z " fill="#323232" transform="translate(272,342)"/>
<path d="M0 0 C0.99 0 1.98 0 3 0 C2.44010697 3.99012371 1.24330232 6.5255052 -1.0625 9.8125 C-1.88427734 10.99779297 -1.88427734 10.99779297 -2.72265625 12.20703125 C-3.35494141 13.09455078 -3.35494141 13.09455078 -4 14 C-4.66 13.34 -5.32 12.68 -6 12 C-5.34 10.02 -4.68 8.04 -4 6 C-3.34 6 -2.68 6 -2 6 C-1.34 4.02 -0.68 2.04 0 0 Z " fill="#1A1A1A" transform="translate(336,311)"/>
<path d="M0 0 C1.75129657 1.10210905 3.50098464 2.20677432 5.25 3.3125 C6.22453125 3.92738281 7.1990625 4.54226562 8.203125 5.17578125 C13.02259887 8.31920904 13.02259887 8.31920904 15 10 C15 10.66 15 11.32 15 12 C10.95698825 10.51481201 7.38853744 8.57122002 3.6875 6.375 C2.08455078 5.42753906 2.08455078 5.42753906 0.44921875 4.4609375 C-0.35902344 3.97882813 -1.16726563 3.49671875 -2 3 C-1.34 2.67 -0.68 2.34 0 2 C0 1.34 0 0.68 0 0 Z " fill="#363636" transform="translate(263,215)"/>
<path d="M0 0 C-0.99 0.495 -0.99 0.495 -2 1 C-2.33 1.99 -2.66 2.98 -3 4 C-9.05714286 8 -9.05714286 8 -14 8 C-14 7.34 -14 6.68 -14 6 C-12.20703125 4.4921875 -12.20703125 4.4921875 -9.8125 2.875 C-9.03519531 2.33617187 -8.25789063 1.79734375 -7.45703125 1.2421875 C-4.72891819 -0.13704931 -3.01385001 -0.24624707 0 0 Z " fill="#1A1A1A" transform="translate(321,260)"/>
<path d="M0 0 C2.97 1.65 5.94 3.3 9 5 C8.34 6.32 7.68 7.64 7 9 C6.01 9 5.02 9 4 9 C3.67 8.34 3.34 7.68 3 7 C2.01 7.495 2.01 7.495 1 8 C-0.35439668 5.29120665 -0.06501451 2.99066732 0 0 Z " fill="#E8E8E8" transform="translate(194,301)"/>
<path d="M0 0 C0.99 0.33 1.98 0.66 3 1 C3 2.32 3 3.64 3 5 C3.66 5.33 4.32 5.66 5 6 C2.1875 7.125 2.1875 7.125 -1 8 C-1.99 7.34 -2.98 6.68 -4 6 C-4 5.01 -4 4.02 -4 3 C-2.1875 1.25 -2.1875 1.25 0 0 Z " fill="#1E1E1E" transform="translate(322,210)"/>
<path d="M0 0 C0.99 0.33 1.98 0.66 3 1 C2.01 1.495 2.01 1.495 1 2 C0.67 2.99 0.34 3.98 0 5 C-1.65848177 6.01351664 -3.32665961 7.01120795 -5 8 C-5.845625 8.845625 -6.69125 9.69125 -7.5625 10.5625 C-9.70847194 12.70847194 -11.23289641 13.8726615 -14 15 C-14 14.34 -14 13.68 -14 13 C-12.64453125 11.66796875 -12.64453125 11.66796875 -10.8125 10.1875 C-7.6981307 7.60900396 -4.82108716 4.90168965 -2 2 C-1.34 1.34 -0.68 0.68 0 0 Z " fill="#252525" transform="translate(345,203)"/>
<path d="M0 0 C5.41538462 -0.36923077 5.41538462 -0.36923077 8.375 1.5 C8.91125 1.995 9.4475 2.49 10 3 C9.67 4.65 9.34 6.3 9 8 C6.525 7.01 6.525 7.01 4 6 C4 5.01 4 4.02 4 3 C2.68 2.67 1.36 2.34 0 2 C0 1.34 0 0.68 0 0 Z " fill="#1B1B1B" transform="translate(247,187)"/>
<path d="M0 0 C7.83098592 1.95774648 7.83098592 1.95774648 11 5 C11 5.66 11 6.32 11 7 C8.23723823 6.47731534 5.6739124 5.89130413 3 5 C3 5.99 3 6.98 3 8 C2.34 7.67 1.68 7.34 1 7 C0.59270772 4.67843403 0.25561323 2.3431213 0 0 Z " fill="#1E1E1E" transform="translate(252,210)"/>
<path d="M0 0 C2.64 0.33 5.28 0.66 8 1 C8.33 2.65 8.66 4.3 9 6 C8.01 6 7.02 6 6 6 C5.01 6.495 5.01 6.495 4 7 C4 6.34 4 5.68 4 5 C2.02 4.34 0.04 3.68 -2 3 C-1.34 2.67 -0.68 2.34 0 2 C0 1.34 0 0.68 0 0 Z " fill="#131313" transform="translate(364,34)"/>
<path d="M0 0 C0.99 0 1.98 0 3 0 C2.02552263 3.50811852 1.07842969 4.93404776 -1.75 7.3125 C-5.21187268 9.11001082 -7.16571972 9.36516955 -11 9 C-10.01 8.34 -9.02 7.68 -8 7 C-6.7869057 6.17361262 -5.57869206 5.3400234 -4.375 4.5 C-3.45847656 3.86578125 -3.45847656 3.86578125 -2.5234375 3.21875 C-0.85440275 2.05802064 -0.85440275 2.05802064 0 0 Z " fill="#212121" transform="translate(346,221)"/>
<path d="M0 0 C0.99 0.33 1.98 0.66 3 1 C3 1.66 3 2.32 3 3 C2.34 3 1.68 3 1 3 C1.33 4.65 1.66 6.3 2 8 C0.35 9.32 -1.3 10.64 -3 12 C-3.33 11.01 -3.66 10.02 -4 9 C-3.34 8.01 -2.68 7.02 -2 6 C-1.29835358 4.01200182 -0.62627128 2.01301483 0 0 Z " fill="#070707" transform="translate(180,379)"/>
<path d="M0 0 C0.66 0.66 1.32 1.32 2 2 C2.99 2 3.98 2 5 2 C5 2.99 5 3.98 5 5 C4.34 5 3.68 5 3 5 C3.33 5.99 3.66 6.98 4 8 C2.02 8.99 2.02 8.99 0 10 C-0.33 9.67 -0.66 9.34 -1 9 C-1.66 9 -2.32 9 -3 9 C-2.01 6.03 -1.02 3.06 0 0 Z " fill="#F7F7F7" transform="translate(371,254)"/>
<path d="M0 0 C0.66 0 1.32 0 2 0 C2.20413361 5.73842251 2.27141454 10.60539047 0 16 C-0.66 15.67 -1.32 15.34 -2 15 C-1.38487182 9.99109914 -0.7282448 4.99367864 0 0 Z " fill="#090909" transform="translate(371,241)"/>
<path d="M0 0 C0.66 0.33 1.32 0.66 2 1 C1.26418258 2.1549921 0.51069961 3.29874185 -0.25 4.4375 C-0.66765625 5.07558594 -1.0853125 5.71367187 -1.515625 6.37109375 C-3.30047915 8.32973633 -4.45602809 8.47505342 -7 9 C-9.22977996 10.97901574 -9.22977996 10.97901574 -11 13 C-11.66 12.67 -12.32 12.34 -13 12 C-9.48451346 6.95604105 -4.88263123 3.62024153 0 0 Z " fill="#E1E1E1" transform="translate(340,167)"/>
<path d="M0 0 C0 0.66 0 1.32 0 2 C-0.66 2 -1.32 2 -2 2 C-2 3.65 -2 5.3 -2 7 C-5.375 7.625 -5.375 7.625 -9 8 C-9.66 7.34 -10.32 6.68 -11 6 C-9.54550599 4.9944239 -8.08627557 3.99569565 -6.625 3 C-5.40683594 2.1646875 -5.40683594 2.1646875 -4.1640625 1.3125 C-2 0 -2 0 0 0 Z " fill="#DEDEDE" transform="translate(274,454)"/>
<path d="M0 0 C10.55808656 0.77904328 10.55808656 0.77904328 15 3 C15 3.33 15 3.66 15 4 C4.44191344 4.3690205 4.44191344 4.3690205 0 2 C0 1.34 0 0.68 0 0 Z " fill="#191919" transform="translate(292,349)"/>
<path d="M0 0 C0.99 0.33 1.98 0.66 3 1 C1.35 4.3 -0.3 7.6 -2 11 C-2.99 11 -3.98 11 -5 11 C-3.55049545 7.2089881 -1.84827434 3.6125362 0 0 Z " fill="#161616" transform="translate(357,277)"/>
<path d="M0 0 C0 0.99 0 1.98 0 3 C0.66 3.66 1.32 4.32 2 5 C-7.41002278 8.25968109 -7.41002278 8.25968109 -12 9 C-9.67350413 6.49280542 -7.17318479 4.67816399 -4.3125 2.8125 C-3.50425781 2.28269531 -2.69601562 1.75289063 -1.86328125 1.20703125 C-1.24839844 0.80871094 -0.63351562 0.41039062 0 0 Z " fill="#282828" transform="translate(274,441)"/>
<path d="M0 0 C3.34373475 0.55728913 6.03312999 1.35173889 9 3 C9 3.99 9 4.98 9 6 C5.04179141 5.43454163 2.3340947 4.19097652 -1 2 C-0.67 1.34 -0.34 0.68 0 0 Z " fill="#121212" transform="translate(287,380)"/>
<path d="M0 0 C-0.25 2.375 -0.25 2.375 -1 5 C-3.75160407 6.96543148 -6.70003609 7.45000601 -10 8 C-9.04578192 6.85073734 -8.08647955 5.70569459 -7.125 4.5625 C-6.59132813 3.92441406 -6.05765625 3.28632813 -5.5078125 2.62890625 C-3.68057607 0.65492285 -2.70796331 0 0 0 Z " fill="#D6D6D6" transform="translate(362,181)"/>
<path d="M0 0 C2.64 0.66 5.28 1.32 8 2 C8 2.33 8 2.66 8 3 C7.01 3.0825 6.02 3.165 5 3.25 C1.13545408 3.77626947 -1.82785315 5.26325347 -5.203125 7.16015625 C-7 8 -7 8 -10 8 C-9.375 6.0625 -9.375 6.0625 -8 4 C-6.00714063 3.62633887 -4.00636471 3.29259485 -2 3 C-1.34 2.01 -0.68 1.02 0 0 Z " fill="#252525" transform="translate(344,162)"/>
<path d="M0 0 C1.6254308 0.14095064 3.25034051 0.28792087 4.875 0.4375 C5.77992188 0.51871094 6.68484375 0.59992188 7.6171875 0.68359375 C10 1 10 1 12 2 C12.33 1.34 12.66 0.68 13 0 C13.33 2.64 13.66 5.28 14 8 C13.401875 7.175 12.80375 6.35 12.1875 5.5 C10.16385044 3.41164071 9.16027181 3.01913357 6.21875 2.66796875 C3.46436561 2.68571607 0.74557031 2.78362406 -2 3 C-1.34 2.67 -0.68 2.34 0 2 C0 1.34 0 0.68 0 0 Z " fill="#404040" transform="translate(261,364)"/>
<path d="M0 0 C4.95 0.33 9.9 0.66 15 1 C15 1.33 15 1.66 15 2 C13.1746875 2.2165625 13.1746875 2.2165625 11.3125 2.4375 C8.86736454 2.73610946 6.53626747 3.10081142 4.125 3.625 C2 4 2 4 0 3 C0 2.01 0 1.02 0 0 Z " fill="#B8B8B8" transform="translate(294,314)"/>
<path d="M0 0 C-0.375 1.9375 -0.375 1.9375 -1 4 C-1.99 4.495 -1.99 4.495 -3 5 C-3 5.99 -3 6.98 -3 8 C-4.65 8.66 -6.3 9.32 -8 10 C-8 9.01 -8 8.02 -8 7 C-7.01 7 -6.02 7 -5 7 C-5.33 6.01 -5.66 5.02 -6 4 C-5.34 4 -4.68 4 -4 4 C-4 3.01 -4 2.02 -4 1 C-4.66 0.67 -5.32 0.34 -6 0 C-2.25 -1.125 -2.25 -1.125 0 0 Z " fill="#151515" transform="translate(339,35)"/>
<path d="M0 0 C3.41021743 0.78697325 6.68885166 1.87119943 10 3 C10 3.33 10 3.66 10 4 C8.35 4 6.7 4 5 4 C4.67 4.66 4.34 5.32 4 6 C2.02 5.01 0.04 4.02 -2 3 C-1.34 2.67 -0.68 2.34 0 2 C0 1.34 0 0.68 0 0 Z " fill="#1F1F1F" transform="translate(296,384)"/>
<path d="M0 0 C1.32 0.66 2.64 1.32 4 2 C3.979375 2.78375 3.95875 3.5675 3.9375 4.375 C3.81315937 6.98114961 3.81315937 6.98114961 5 9 C1.62496331 7.8141763 -0.64722731 6.72426311 -3 4 C-2.01 3.34 -1.02 2.68 0 2 C0 1.34 0 0.68 0 0 Z " fill="#282828" transform="translate(210,305)"/>
<path d="M0 0 C0.66 0 1.32 0 2 0 C2.66 1.65 3.32 3.3 4 5 C1.66785852 6.20628008 -0.49642139 7.1654738 -3 8 C-3.33 7.01 -3.66 6.02 -4 5 C-2.1875 2.3125 -2.1875 2.3125 0 0 Z " fill="#F9F9F9" transform="translate(202,307)"/>
<path d="M0 0 C0.33 1.32 0.66 2.64 1 4 C0.34 4 -0.32 4 -1 4 C-0.979375 4.969375 -0.95875 5.93875 -0.9375 6.9375 C-0.92849192 11.33344515 -1.44690406 15.64436949 -2 20 C-2.99 20.33 -3.98 20.66 -5 21 C-4.7834375 19.93072266 -4.7834375 19.93072266 -4.5625 18.83984375 C-3.28528652 12.46714742 -3.28528652 12.46714742 -3.0625 6 C-3 3 -3 3 -1.5 1.0625 C-1.005 0.711875 -0.51 0.36125 0 0 Z " fill="#343434" transform="translate(372,237)"/>
<path d="M0 0 C3.94859783 0.5640854 6.70879046 1.7431706 10 4 C10 4.33 10 4.66 10 5 C7.03 5 4.06 5 1 5 C0.67 3.35 0.34 1.7 0 0 Z " fill="#E0E0E0" transform="translate(224,321)"/>
<path d="M0 0 C2.97 0 5.94 0 9 0 C9 0.66 9 1.32 9 2 C6.03 2.66 3.06 3.32 0 4 C0 2.68 0 1.36 0 0 Z " fill="#F5F5F5" transform="translate(349,40)"/>
<path d="M0 0 C2.97 0.33 5.94 0.66 9 1 C8.34 2.32 7.68 3.64 7 5 C4.0625 4.1875 4.0625 4.1875 1 3 C0.67 2.01 0.34 1.02 0 0 Z " fill="#121212" transform="translate(301,388)"/>
<path d="M0 0 C-1.09068668 3.77545388 -1.9083091 6.47043472 -5 9 C-5 7.35 -5 5.7 -5 4 C-5.66 3.67 -6.32 3.34 -7 3 C-4.49955934 -0.00052879 -4.2621484 0 0 0 Z " fill="#202020" transform="translate(252,226)"/>
<path d="M0 0 C0.33 0 0.66 0 1 0 C1 2.31 1 4.62 1 7 C0.01 7.33 -0.98 7.66 -2 8 C-3.98 4.535 -3.98 4.535 -6 1 C-3.525 1.495 -3.525 1.495 -1 2 C-0.67 1.34 -0.34 0.68 0 0 Z " fill="#0C0C0C" transform="translate(365,167)"/>
<path d="M0 0 C0.66 0 1.32 0 2 0 C2 0.66 2 1.32 2 2 C3.65 2.33 5.3 2.66 7 3 C7 3.99 7 4.98 7 6 C3.26512223 5.5020163 1.18762365 5.12508244 -2 3 C-1.34 2.01 -0.68 1.02 0 0 Z " fill="#747474" transform="translate(364,218)"/>
<path d="M0 0 C3.26954202 0.56371414 4.82575883 1.49962266 7 4 C6 5 6 5 3.93359375 5.09765625 C3.10988281 5.08605469 2.28617188 5.07445312 1.4375 5.0625 C0.61121094 5.05347656 -0.21507812 5.04445313 -1.06640625 5.03515625 C-1.70449219 5.02355469 -2.34257812 5.01195312 -3 5 C-2.505 4.54625 -2.01 4.0925 -1.5 3.625 C0.22609337 2.12364481 0.22609337 2.12364481 0 0 Z " fill="#D7D7D7" transform="translate(173,54)"/>
<path d="M0 0 C0.33 0.66 0.66 1.32 1 2 C-6.11389522 10.81548975 -6.11389522 10.81548975 -11 12 C-10.29875 11.319375 -9.5975 10.63875 -8.875 9.9375 C-5.72065663 6.79219487 -2.86065696 3.4111614 0 0 Z " fill="#C9C9C9" transform="translate(181,387)"/>
<path d="M0 0 C0.66 0.33 1.32 0.66 2 1 C-0.75 7.875 -0.75 7.875 -3 9 C-3.33 8.01 -3.66 7.02 -4 6 C-4.66 5.67 -5.32 5.34 -6 5 C-4.02 3.35 -2.04 1.7 0 0 Z " fill="#242424" transform="translate(353,182)"/>
<path d="M0 0 C1.6026782 -0.10824843 3.20745748 -0.18570645 4.8125 -0.25 C5.70582031 -0.29640625 6.59914063 -0.3428125 7.51953125 -0.390625 C10 0 10 0 11.82421875 2.015625 C12.40623047 2.99789062 12.40623047 2.99789062 13 4 C11.02 4 9.04 4 7 4 C6.67 3.34 6.34 2.68 6 2 C4.02 2 2.04 2 0 2 C0 1.34 0 0.68 0 0 Z " fill="#DDDDDD" transform="translate(322,88)"/>
<path d="M0 0 C-0.33 1.32 -0.66 2.64 -1 4 C-1.66 3.67 -2.32 3.34 -3 3 C-5.54615009 2.76827173 -8.07396225 2.58105471 -10.625 2.4375 C-11.33140625 2.39431641 -12.0378125 2.35113281 -12.765625 2.30664062 C-14.51018537 2.20055249 -16.25506697 2.09977111 -18 2 C-18 1.67 -18 1.34 -18 1 C-15.56257869 0.83210874 -13.12507454 0.66563867 -10.6875 0.5 C-9.99720703 0.45230469 -9.30691406 0.40460938 -8.59570312 0.35546875 C-5.72337641 0.16120511 -2.87986212 0 0 0 Z " fill="#636363" transform="translate(317,313)"/>
<path d="M0 0 C0 0.66 0 1.32 0 2 C-3.40652872 5.20614467 -6.51400257 6.74809374 -11 8 C-3.21621622 0 -3.21621622 0 0 0 Z " fill="#212121" transform="translate(304,279)"/>
<path d="M0 0 C1.65 0 3.3 0 5 0 C5 1.32 5 2.64 5 4 C2.69 4 0.38 4 -2 4 C-1.34 2.68 -0.68 1.36 0 0 Z " fill="#202020" transform="translate(212,227)"/>
<path d="M0 0 C-0.3125 2.375 -0.3125 2.375 -1 5 C-1.99 5.66 -2.98 6.32 -4 7 C-4.33 6.01 -4.66 5.02 -5 4 C-5.66 3.34 -6.32 2.68 -7 2 C-4.35261084 0.5393715 -3.10551666 0 0 0 Z " fill="#2A2A2A" transform="translate(378,198)"/>
<path d="M0 0 C1.32 0.33 2.64 0.66 4 1 C4 1.66 4 2.32 4 3 C2.03125 4.5078125 2.03125 4.5078125 -0.5 6.125 C-1.3353125 6.66382813 -2.170625 7.20265625 -3.03125 7.7578125 C-3.6809375 8.16773438 -4.330625 8.57765625 -5 9 C-3.58258162 6.06039754 -1.97212726 3.5996223 0 1 C0 0.67 0 0.34 0 0 Z " fill="#DFDFDF" transform="translate(323,400)"/>
<path d="M0 0 C1.10773342 3.32320026 0.93312508 4.69164744 0 8 C-0.66 8.66 -1.32 9.32 -2 10 C-2.66 9.67 -3.32 9.34 -4 9 C-2.80100302 5.9168649 -1.52299523 2.93720508 0 0 Z " fill="#303030" transform="translate(330,321)"/>
<path d="M0 0 C0.66 0.33 1.32 0.66 2 1 C2 1.66 2 2.32 2 3 C5.63 3.33 9.26 3.66 13 4 C13 4.33 13 4.66 13 5 C6.80112515 5.37952295 2.5522888 4.8352113 -3 2 C-2.01 1.34 -1.02 0.68 0 0 Z " fill="#555555" transform="translate(294,321)"/>
<path d="M0 0 C0.99 0.66 1.98 1.32 3 2 C3 2.66 3 3.32 3 4 C3.66 4.33 4.32 4.66 5 5 C4.34 5 3.68 5 3 5 C2.67 5.99 2.34 6.98 2 8 C0.68 6.02 -0.64 4.04 -2 2 C-1.34 1.34 -0.68 0.68 0 0 Z " fill="#1F1F1F" transform="translate(223,225)"/>
<path d="M0 0 C0.99 0.33 1.98 0.66 3 1 C2.1875 3.4375 2.1875 3.4375 1 6 C0.01 6.33 -0.98 6.66 -2 7 C-2.33 5.35 -2.66 3.7 -3 2 C-2.01 1.34 -1.02 0.68 0 0 Z " fill="#0F0F0F" transform="translate(323,179)"/>
<path d="M0 0 C4.455 1.98 4.455 1.98 9 4 C8.34 4.66 7.68 5.32 7 6 C6.67 5.67 6.34 5.34 6 5 C5.0409375 5.2784375 5.0409375 5.2784375 4.0625 5.5625 C3.381875 5.706875 2.70125 5.85125 2 6 C1.34 5.34 0.68 4.68 0 4 C0 2.68 0 1.36 0 0 Z " fill="#DCDCDC" transform="translate(291,385)"/>
<path d="M0 0 C2.31 0 4.62 0 7 0 C6.01 1.485 6.01 1.485 5 3 C4.34 3 3.68 3 3 3 C2.34 4.32 1.68 5.64 1 7 C0.67 4.69 0.34 2.38 0 0 Z " fill="#C6C6C6" transform="translate(164,244)"/>
<path d="M0 0 C0 0.66 0 1.32 0 2 C-0.99 2 -1.98 2 -3 2 C-3.33 2.66 -3.66 3.32 -4 4 C-4.99 3.67 -5.98 3.34 -7 3 C-7.99 3.66 -8.98 4.32 -10 5 C-10.66 4.34 -11.32 3.68 -12 3 C-10.75336669 2.49166409 -9.50250613 1.99368855 -8.25 1.5 C-7.55390625 1.2215625 -6.8578125 0.943125 -6.140625 0.65625 C-4 0 -4 0 0 0 Z " fill="#2D2D2D" transform="translate(203,41)"/>
<path d="M0 0 C0.33 0.66 0.66 1.32 1 2 C0.34 2 -0.32 2 -1 2 C-1.103125 2.61875 -1.20625 3.2375 -1.3125 3.875 C-2 6 -2 6 -5 8 C-5 7.34 -5 6.68 -5 6 C-5.66 5.67 -6.32 5.34 -7 5 C-4.69 3.35 -2.38 1.7 0 0 Z " fill="#252525" transform="translate(283,434)"/>
<path d="M0 0 C-0.33 1.32 -0.66 2.64 -1 4 C-3.64 4 -6.28 4 -9 4 C-8.67 3.01 -8.34 2.02 -8 1 C-2.25 0 -2.25 0 0 0 Z " fill="#101010" transform="translate(260,363)"/>
<path d="M0 0 C0.99 0 1.98 0 3 0 C2.3125 2.875 2.3125 2.875 1 6 C-1.625 7.375 -1.625 7.375 -4 8 C-2.87548273 5.0280615 -1.77706209 2.66559313 0 0 Z " fill="#DADADA" transform="translate(324,338)"/>
<path d="M0 0 C1.04449911 3.13349732 0.93423645 3.98968256 0 7 C-1.32 6.34 -2.64 5.68 -4 5 C-4 5.66 -4 6.32 -4 7 C-4.66 6.67 -5.32 6.34 -6 6 C-5.67 5.34 -5.34 4.68 -5 4 C-4.34 4 -3.68 4 -3 4 C-2.67 3.01 -2.34 2.02 -2 1 C-1.34 0.67 -0.68 0.34 0 0 Z " fill="#E4E4E4" transform="translate(324,257)"/>
<path d="M0 0 C1.65 0 3.3 0 5 0 C4.67 1.32 4.34 2.64 4 4 C2.35 4 0.7 4 -1 4 C-0.67 2.68 -0.34 1.36 0 0 Z " fill="#303030" transform="translate(219,234)"/>
<path d="M0 0 C2.97 0.495 2.97 0.495 6 1 C5.34 2.32 4.68 3.64 4 5 C2.68 4.67 1.36 4.34 0 4 C0 2.68 0 1.36 0 0 Z " fill="#0D0D0D" transform="translate(276,201)"/>
<path d="M0 0 C1.32 0.66 2.64 1.32 4 2 C0.71536341 4.18975773 -2.20696275 4.99806563 -6 6 C-6 5.34 -6 4.68 -6 4 C-4.03852126 2.61061923 -2.03833424 1.2739589 0 0 Z " fill="#3C3C3C" transform="translate(211,187)"/>
<path d="M0 0 C5.57142857 5.14285714 5.57142857 5.14285714 6 9 C3.5625 7.875 3.5625 7.875 1 6 C0.1875 2.8125 0.1875 2.8125 0 0 Z " fill="#0F0F0F" transform="translate(274,367)"/>
<path d="M0 0 C2.31 0.33 4.62 0.66 7 1 C7 1.99 7 2.98 7 4 C5.35 4 3.7 4 2 4 C2 3.34 2 2.68 2 2 C1.34 2 0.68 2 0 2 C0 1.34 0 0.68 0 0 Z " fill="#101010" transform="translate(278,345)"/>
<path d="M0 0 C2.31 0.33 4.62 0.66 7 1 C6.67 1.99 6.34 2.98 6 4 C5.34 4 4.68 4 4 4 C3.67 4.66 3.34 5.32 3 6 C3 5.34 3 4.68 3 4 C2.01 3.67 1.02 3.34 0 3 C0 2.01 0 1.02 0 0 Z " fill="#2C2C2C" transform="translate(357,226)"/>
<path d="M0 0 C0.99 0.99 1.98 1.98 3 3 C2.67 3.99 2.34 4.98 2 6 C1.34 6 0.68 6 0 6 C0 5.34 0 4.68 0 4 C-0.99 4 -1.98 4 -3 4 C-2.67 3.01 -2.34 2.02 -2 1 C-1.34 0.67 -0.68 0.34 0 0 Z " fill="#FCFCFC" transform="translate(354,225)"/>
<path d="M0 0 C0.66 0.33 1.32 0.66 2 1 C1.67 1.66 1.34 2.32 1 3 C1.66 3.33 2.32 3.66 3 4 C0 6 0 6 -3 6 C-2.42655063 3.13275314 -2.1385485 2.1385485 0 0 Z " fill="#DBDBDB" transform="translate(325,48)"/>
<path d="M0 0 C0.66 0.66 1.32 1.32 2 2 C-0.64 3.98 -3.28 5.96 -6 8 C-6.33 7.34 -6.66 6.68 -7 6 C-4.80090595 3.80090595 -2.43929746 1.92576115 0 0 Z " fill="#EAEAEA" transform="translate(278,435)"/>
<path d="M0 0 C1.64846769 0.44876616 3.29373455 0.90930488 4.9375 1.375 C5.85402344 1.63023437 6.77054688 1.88546875 7.71484375 2.1484375 C10 3 10 3 11 5 C6.91281305 5.24042276 3.82320557 4.42258812 0 3 C0 2.01 0 1.02 0 0 Z " fill="#CFCFCF" transform="translate(146,420)"/>
<path d="M0 0 C-1.2065625 0.4021875 -1.2065625 0.4021875 -2.4375 0.8125 C-3.283125 1.204375 -4.12875 1.59625 -5 2 C-5.33 2.99 -5.66 3.98 -6 5 C-6.99 5 -7.98 5 -9 5 C-7.93411431 2.09303901 -7.29651501 1.15567038 -4.5 -0.3125 C-2 -1 -2 -1 0 0 Z " fill="#C9C9C9" transform="translate(301,245)"/>
<path d="M0 0 C0 1.98 0 3.96 0 6 C-1.32 6.33 -2.64 6.66 -4 7 C-4.33 6.01 -4.66 5.02 -5 4 C-1.125 0 -1.125 0 0 0 Z " fill="#E6E6E6" transform="translate(362,171)"/>
<path d="M0 0 C0.66 0.33 1.32 0.66 2 1 C0.02 3.97 0.02 3.97 -2 7 C-3.5 5.625 -3.5 5.625 -5 4 C-5 3.34 -5 2.68 -5 2 C-2.625 0.9375 -2.625 0.9375 0 0 Z " fill="#2E2E2E" transform="translate(316,40)"/>
<path d="M0 0 C0.33 0.66 0.66 1.32 1 2 C-0.3125 4.625 -0.3125 4.625 -2 7 C-2.66 7 -3.32 7 -4 7 C-3.67 5.02 -3.34 3.04 -3 1 C-2.01 0.67 -1.02 0.34 0 0 Z " fill="#191919" transform="translate(369,257)"/>
<path d="M0 0 C0.66 0.99 1.32 1.98 2 3 C-0.35438733 4.42944945 -1.48032433 5.08661261 -4.25 4.625 C-4.8275 4.41875 -5.405 4.2125 -6 4 C-4.03617993 2.49440461 -2.21736634 1.10868317 0 0 Z " fill="#161616" transform="translate(356,245)"/>
<path d="M0 0 C0 2.33333333 0 4.66666667 0 7 C-0.66 7 -1.32 7 -2 7 C-2.33 7.66 -2.66 8.32 -3 9 C-3.75 6.75 -3.75 6.75 -4 4 C-2.0625 1.6875 -2.0625 1.6875 0 0 Z " fill="#D5D5D5" transform="translate(333,209)"/>
<path d="M0 0 C0.66 0.33 1.32 0.66 2 1 C1.24266726 2.3410477 0.46867264 3.67269781 -0.3125 5 C-0.74175781 5.7425 -1.17101562 6.485 -1.61328125 7.25 C-2.07089844 7.8275 -2.52851563 8.405 -3 9 C-3.99 9 -4.98 9 -6 9 C-4.47291037 5.56404834 -2.40072955 2.88087546 0 0 Z " fill="#CFCFCF" transform="translate(373,205)"/>
<path d="M0 0 C0.33 0.66 0.66 1.32 1 2 C1.99 1.67 2.98 1.34 4 1 C4 2.98 4 4.96 4 7 C3.01 6.67 2.02 6.34 1 6 C0.67 4.02 0.34 2.04 0 0 Z " fill="#383838" transform="translate(362,173)"/>
<path d="M0 0 C2.125 0.9375 2.125 0.9375 4 2 C4 2.99 4 3.98 4 5 C2.02 4.34 0.04 3.68 -2 3 C-2 2.34 -2 1.68 -2 1 C-1.34 0.67 -0.68 0.34 0 0 Z " fill="#E1E1E1" transform="translate(204,428)"/>
<path d="M0 0 C0 3 0 3 -1.5 4.6875 C-1.995 5.120625 -2.49 5.55375 -3 6 C-3.99 5.67 -4.98 5.34 -6 5 C-2.25 1.125 -2.25 1.125 0 0 Z " fill="#E7E7E7" transform="translate(319,423)"/>
<path d="M0 0 C0.66 0.99 1.32 1.98 2 3 C1.25 4.9375 1.25 4.9375 0 7 C-1.32 7.33 -2.64 7.66 -4 8 C-2.68 5.36 -1.36 2.72 0 0 Z " fill="#E1E1E1" transform="translate(354,288)"/>
<path d="M0 0 C0.66 0 1.32 0 2 0 C2.125 2.875 2.125 2.875 2 6 C1.34 6.66 0.68 7.32 0 8 C-1.125 5.6875 -1.125 5.6875 -2 3 C-1.34 2.01 -0.68 1.02 0 0 Z " fill="#F7F7F7" transform="translate(373,207)"/>
<path d="M0 0 C1.9375 0.75 1.9375 0.75 4 2 C4.75 4.125 4.75 4.125 5 6 C2.525 5.01 2.525 5.01 0 4 C0 2.68 0 1.36 0 0 Z " fill="#E8E8E8" transform="translate(259,209)"/>
<path d="M0 0 C0.66 0.33 1.32 0.66 2 1 C2.125 4.375 2.125 4.375 2 8 C1.34 8.66 0.68 9.32 0 10 C-1.125 3.375 -1.125 3.375 0 0 Z " fill="#040404" transform="translate(362,188)"/>
<path d="M0 0 C0 0.66 0 1.32 0 2 C-1.95927063 3.7143618 -3.95880212 5.38405168 -6 7 C-6.33 6.01 -6.66 5.02 -7 4 C-2.25 0 -2.25 0 0 0 Z " fill="#101010" transform="translate(263,450)"/>
<path d="M0 0 C0.86625 0.3403125 0.86625 0.3403125 1.75 0.6875 C0.5625 2.25 0.5625 2.25 -1.25 3.6875 C-3.9375 3.375 -3.9375 3.375 -6.25 2.6875 C-2.80384615 -0.38942308 -2.80384615 -0.38942308 0 0 Z " fill="#BCBCBC" transform="translate(301.25,303.3125)"/>
<path d="M0 0 C0.66 0 1.32 0 2 0 C1.67 2.31 1.34 4.62 1 7 C0.01 6.67 -0.98 6.34 -2 6 C-1.49396008 3.83125748 -1.00016187 2.00032373 0 0 Z " fill="#1E1E1E" transform="translate(360,271)"/>
<path d="M0 0 C0.66 1.32 1.32 2.64 2 4 C1.67 4.99 1.34 5.98 1 7 C0.34 7 -0.32 7 -1 7 C-1 7.66 -1 8.32 -1 9 C-1.66 9 -2.32 9 -3 9 C-2.01 6.03 -1.02 3.06 0 0 Z " fill="#CCCCCC" transform="translate(371,254)"/>
<path d="M0 0 C0.66 0.33 1.32 0.66 2 1 C0 4 0 4 -3 6 C-3.33 4.35 -3.66 2.7 -4 1 C-2.68 1.33 -1.36 1.66 0 2 C0 1.34 0 0.68 0 0 Z " fill="#E5E5E5" transform="translate(371,222)"/>
<path d="M0 0 C0.99 0 1.98 0 3 0 C2.6875 1.875 2.6875 1.875 2 4 C1.01 4.66 0.02 5.32 -1 6 C-1.33 5.01 -1.66 4.02 -2 3 C-1.34 2.01 -0.68 1.02 0 0 Z " fill="#F1F1F1" transform="translate(334,209)"/>
<path d="M0 0 C1.9375 0.75 1.9375 0.75 4 2 C4.75 4.125 4.75 4.125 5 6 C2.525 5.01 2.525 5.01 0 4 C0 2.68 0 1.36 0 0 Z " fill="#2B2B2B" transform="translate(199,204)"/>
<path d="M0 0 C1.65 0 3.3 0 5 0 C5.66 1.65 6.32 3.3 7 5 C3.535 3.02 3.535 3.02 0 1 C0 0.67 0 0.34 0 0 Z " fill="#CACACA" transform="translate(299,68)"/>
</svg>
